<svg xmlns="http://www.w3.org/2000/svg" xmlns:xlink="http://www.w3.org/1999/xlink" width="500" zoomAndPan="magnify" viewBox="0 0 375 374.999991" height="500" preserveAspectRatio="xMidYMid meet" version="1.0"><defs><g/></defs><g fill="#222222" fill-opacity="1"><g transform="translate(52.094714, 204.158672)"><g><path d="M 33.8125 -11.421875 C 33.925781 -9.847656 33.597656 -8.359375 32.828125 -6.953125 C 32.066406 -5.554688 30.953125 -4.34375 29.484375 -3.3125 C 28.023438 -2.289062 26.335938 -1.484375 24.421875 -0.890625 C 22.515625 -0.296875 20.492188 0 18.359375 0 C 15.597656 0 13.039062 -0.453125 10.6875 -1.359375 C 8.34375 -2.265625 6.46875 -3.488281 5.0625 -5.03125 C 3.65625 -6.570312 2.953125 -8.3125 2.953125 -10.25 C 2.953125 -11.976562 3.570312 -13.460938 4.8125 -14.703125 C 6.0625 -15.953125 7.554688 -16.578125 9.296875 -16.578125 C 11.035156 -16.578125 12.523438 -15.953125 13.765625 -14.703125 C 15.015625 -13.460938 15.640625 -11.976562 15.640625 -10.25 C 15.640625 -9.144531 15.441406 -8.234375 15.046875 -7.515625 C 14.648438 -6.804688 14.203125 -6.210938 13.703125 -5.734375 C 13.210938 -5.265625 12.800781 -4.8125 12.46875 -4.375 C 12.132812 -3.945312 12.023438 -3.457031 12.140625 -2.90625 C 12.296875 -2.15625 12.882812 -1.539062 13.90625 -1.0625 C 14.9375 -0.59375 16.421875 -0.359375 18.359375 -0.359375 C 19.378906 -0.359375 20.34375 -0.601562 21.25 -1.09375 C 22.164062 -1.582031 22.910156 -2.25 23.484375 -3.09375 C 24.054688 -3.945312 24.34375 -4.910156 24.34375 -5.984375 C 24.34375 -7.484375 23.828125 -8.90625 22.796875 -10.25 C 21.773438 -11.59375 20.453125 -12.90625 18.828125 -14.1875 C 17.210938 -15.46875 15.484375 -16.757812 13.640625 -18.0625 C 11.804688 -19.363281 10.082031 -20.722656 8.46875 -22.140625 C 6.851562 -23.566406 5.53125 -25.066406 4.5 -26.640625 C 3.46875 -28.222656 2.953125 -29.941406 2.953125 -31.796875 C 2.953125 -33.578125 3.425781 -35.078125 4.375 -36.296875 C 5.320312 -37.523438 6.554688 -38.523438 8.078125 -39.296875 C 9.597656 -40.066406 11.238281 -40.617188 13 -40.953125 C 14.757812 -41.285156 16.425781 -41.453125 18 -41.453125 C 19.894531 -41.453125 21.550781 -41.3125 22.96875 -41.03125 C 24.394531 -40.757812 25.9375 -40.625 27.59375 -40.625 C 28.269531 -40.625 28.875 -40.679688 29.40625 -40.796875 C 29.9375 -40.921875 30.398438 -41.140625 30.796875 -41.453125 L 31.15625 -41.453125 L 31.15625 -30.265625 C 31.15625 -30.265625 31.113281 -30.265625 31.03125 -30.265625 C 30.945312 -30.265625 30.867188 -30.265625 30.796875 -30.265625 C 30.472656 -31.921875 29.796875 -33.578125 28.765625 -35.234375 C 27.742188 -36.890625 26.441406 -38.269531 24.859375 -39.375 C 23.285156 -40.476562 21.472656 -41.03125 19.421875 -41.03125 C 17.921875 -41.03125 16.578125 -40.644531 15.390625 -39.875 C 14.210938 -39.113281 13.5625 -37.84375 13.4375 -36.0625 C 13.320312 -34.519531 13.707031 -33.097656 14.59375 -31.796875 C 15.488281 -30.492188 16.6875 -29.238281 18.1875 -28.03125 C 19.6875 -26.832031 21.289062 -25.628906 23 -24.421875 C 24.71875 -23.222656 26.363281 -21.972656 27.9375 -20.671875 C 29.519531 -19.367188 30.851562 -17.96875 31.9375 -16.46875 C 33.03125 -14.96875 33.65625 -13.285156 33.8125 -11.421875 Z M 33.8125 -11.421875 "/></g></g></g><g fill="#222222" fill-opacity="1"><g transform="translate(81.405289, 204.158672)"><g><path d="M 15.984375 -2.125 C 16.660156 -2.125 17.253906 -2.304688 17.765625 -2.671875 L 17.765625 -2.25 C 17.054688 -1.738281 16.085938 -1.1875 14.859375 -0.59375 C 13.640625 0 12.203125 0.296875 10.546875 0.296875 C 8.722656 0.296875 7.160156 -0.351562 5.859375 -1.65625 C 4.554688 -2.957031 3.90625 -4.519531 3.90625 -6.34375 L 3.90625 -28.71875 L 1.484375 -28.71875 L 1.484375 -29.078125 C 3.691406 -29.078125 5.753906 -29.5625 7.671875 -30.53125 C 9.585938 -31.5 11.175781 -32.789062 12.4375 -34.40625 L 12.796875 -34.40625 L 12.796875 -29.078125 L 16.640625 -29.078125 L 16.640625 -28.71875 L 12.796875 -28.71875 L 12.796875 -5.328125 C 12.796875 -4.460938 13.109375 -3.710938 13.734375 -3.078125 C 14.367188 -2.441406 15.117188 -2.125 15.984375 -2.125 Z M 15.984375 -2.125 "/></g></g></g><g fill="#222222" fill-opacity="1"><g transform="translate(93.721228, 204.158672)"><g><path d="M 28.359375 -4.4375 C 28.359375 -3.726562 28.59375 -3.097656 29.0625 -2.546875 C 29.539062 -1.992188 30.117188 -1.660156 30.796875 -1.546875 L 30.796875 -1.1875 L 20.671875 0.296875 L 20.484375 0.296875 C 20.210938 0.296875 19.976562 0.195312 19.78125 0 C 19.582031 -0.195312 19.484375 -0.429688 19.484375 -0.703125 L 19.484375 -1.59375 C 18.378906 -1.039062 17.144531 -0.585938 15.78125 -0.234375 C 14.414062 0.117188 13.039062 0.296875 11.65625 0.296875 C 10.28125 0.296875 9 0.03125 7.8125 -0.5 C 6.632812 -1.03125 5.6875 -1.878906 4.96875 -3.046875 C 4.257812 -4.210938 3.90625 -5.800781 3.90625 -7.8125 L 3.90625 -24.34375 C 3.90625 -25.09375 3.664062 -25.734375 3.1875 -26.265625 C 2.71875 -26.796875 2.148438 -27.117188 1.484375 -27.234375 L 1.484375 -27.59375 L 11.609375 -29.078125 L 11.78125 -29.078125 C 12.457031 -29.078125 12.796875 -28.738281 12.796875 -28.0625 L 12.796875 -8.640625 C 12.796875 -7.660156 12.535156 -6.863281 12.015625 -6.25 C 11.503906 -5.632812 10.992188 -5.070312 10.484375 -4.5625 C 9.972656 -4.050781 9.71875 -3.421875 9.71875 -2.671875 C 9.71875 -2.035156 10.097656 -1.53125 10.859375 -1.15625 C 11.628906 -0.78125 12.585938 -0.59375 13.734375 -0.59375 C 15.234375 -0.59375 16.523438 -0.796875 17.609375 -1.203125 C 18.703125 -1.617188 19.328125 -1.867188 19.484375 -1.953125 L 19.484375 -24.34375 C 19.484375 -25.09375 19.242188 -25.734375 18.765625 -26.265625 C 18.296875 -26.796875 17.726562 -27.117188 17.0625 -27.234375 L 17.0625 -27.59375 L 27.1875 -29.078125 L 27.359375 -29.078125 C 28.023438 -29.078125 28.359375 -28.738281 28.359375 -28.0625 Z M 28.359375 -4.4375 "/></g></g></g><g fill="#222222" fill-opacity="1"><g transform="translate(119.656565, 204.158672)"><g><path d="M 28.84375 -4.4375 C 28.84375 -3.726562 29.078125 -3.097656 29.546875 -2.546875 C 30.023438 -1.992188 30.597656 -1.660156 31.265625 -1.546875 L 31.265625 -1.1875 L 21.140625 0.296875 C 21.097656 0.296875 21.066406 0.296875 21.046875 0.296875 C 21.023438 0.296875 21 0.296875 20.96875 0.296875 C 20.6875 0.296875 20.445312 0.1875 20.25 -0.03125 C 20.050781 -0.25 19.953125 -0.492188 19.953125 -0.765625 L 19.953125 -2.1875 C 18.847656 -1.320312 17.65625 -0.660156 16.375 -0.203125 C 15.09375 0.242188 13.757812 0.390625 12.375 0.234375 C 10.40625 0.0351562 8.640625 -0.722656 7.078125 -2.046875 C 5.515625 -3.367188 4.289062 -5.066406 3.40625 -7.140625 C 2.519531 -9.210938 2.078125 -11.472656 2.078125 -13.921875 C 2.078125 -16.242188 2.441406 -18.375 3.171875 -20.3125 C 3.898438 -22.25 4.875 -23.914062 6.09375 -25.3125 C 7.320312 -26.71875 8.6875 -27.796875 10.1875 -28.546875 C 11.6875 -29.296875 13.207031 -29.671875 14.75 -29.671875 C 15.769531 -29.671875 16.742188 -29.539062 17.671875 -29.28125 C 18.597656 -29.03125 19.359375 -28.742188 19.953125 -28.421875 L 19.953125 -36.71875 C 19.953125 -37.425781 19.710938 -38.054688 19.234375 -38.609375 C 18.765625 -39.160156 18.195312 -39.5 17.53125 -39.625 L 17.53125 -39.96875 L 27.65625 -41.453125 C 27.695312 -41.453125 27.726562 -41.453125 27.75 -41.453125 C 27.769531 -41.453125 27.796875 -41.453125 27.828125 -41.453125 C 28.503906 -41.453125 28.84375 -41.097656 28.84375 -40.390625 Z M 18 -2.1875 C 18.59375 -2.1875 19.242188 -2.347656 19.953125 -2.671875 L 19.953125 -28.015625 C 19.242188 -28.328125 18.59375 -28.484375 18 -28.484375 C 16.695312 -28.484375 15.507812 -27.890625 14.4375 -26.703125 C 13.375 -25.523438 12.515625 -23.945312 11.859375 -21.96875 C 11.210938 -20 10.890625 -17.789062 10.890625 -15.34375 C 10.890625 -12.925781 11.210938 -10.722656 11.859375 -8.734375 C 12.515625 -6.742188 13.375 -5.15625 14.4375 -3.96875 C 15.507812 -2.78125 16.695312 -2.1875 18 -2.1875 Z M 18 -2.1875 "/></g></g></g><g fill="#222222" fill-opacity="1"><g transform="translate(146.065614, 204.158672)"><g><path d="M 23.6875 -29.078125 L 34.9375 -29.078125 L 34.9375 -28.71875 C 33.875 -28.601562 32.804688 -28.21875 31.734375 -27.5625 C 30.671875 -26.914062 29.703125 -26.128906 28.828125 -25.203125 C 27.960938 -24.273438 27.296875 -23.316406 26.828125 -22.328125 L 14.265625 3.96875 C 13.710938 5.1875 13.46875 6.425781 13.53125 7.6875 C 13.59375 8.957031 13.9375 10.09375 14.5625 11.09375 C 15.195312 12.101562 16.046875 12.882812 17.109375 13.4375 C 17.898438 13.789062 18.75 13.96875 19.65625 13.96875 C 20.332031 13.96875 20.671875 13.613281 20.671875 12.90625 C 20.671875 12.394531 20.441406 11.910156 19.984375 11.453125 C 19.535156 11.003906 19.070312 10.484375 18.59375 9.890625 C 18.125 9.296875 17.890625 8.546875 17.890625 7.640625 C 17.890625 6.378906 18.34375 5.289062 19.25 4.375 C 20.15625 3.46875 21.21875 3.015625 22.4375 3.015625 C 23.707031 3.015625 24.796875 3.46875 25.703125 4.375 C 26.609375 5.289062 27.0625 6.378906 27.0625 7.640625 C 27.0625 8.742188 26.742188 9.78125 26.109375 10.75 C 25.484375 11.71875 24.65625 12.515625 23.625 13.140625 C 22.601562 13.773438 21.5 14.160156 20.3125 14.296875 C 19.125 14.441406 18 14.253906 16.9375 13.734375 C 15.789062 13.179688 14.890625 12.363281 14.234375 11.28125 C 13.585938 10.195312 13.234375 9.003906 13.171875 7.703125 C 13.117188 6.398438 13.382812 5.113281 13.96875 3.84375 L 15.8125 0 L 3.203125 -26.46875 C 2.921875 -27.019531 2.503906 -27.519531 1.953125 -27.96875 C 1.398438 -28.425781 0.847656 -28.675781 0.296875 -28.71875 L 0.296875 -29.078125 L 10.421875 -29.078125 C 11.453125 -29.078125 12.160156 -28.679688 12.546875 -27.890625 L 20.84375 -10.546875 L 26.828125 -23.09375 C 27.066406 -23.644531 27.1875 -24.21875 27.1875 -24.8125 C 27.1875 -25.84375 26.847656 -26.734375 26.171875 -27.484375 C 25.503906 -28.234375 24.675781 -28.644531 23.6875 -28.71875 Z M 23.6875 -29.078125 "/></g></g></g><g fill="#222222" fill-opacity="1"><g transform="translate(174.96168, 204.158672)"><g><path d="M 26.703125 -20.90625 C 28.796875 -20.820312 30.679688 -20.296875 32.359375 -19.328125 C 34.035156 -18.367188 35.378906 -17.117188 36.390625 -15.578125 C 37.398438 -14.035156 37.90625 -12.316406 37.90625 -10.421875 C 37.90625 -8.484375 37.367188 -6.734375 36.296875 -5.171875 C 35.234375 -3.617188 33.8125 -2.367188 32.03125 -1.421875 C 30.257812 -0.472656 28.285156 0 26.109375 0 L 1.78125 0 L 1.78125 -0.359375 C 2.757812 -0.359375 3.59375 -0.703125 4.28125 -1.390625 C 4.976562 -2.078125 5.328125 -2.914062 5.328125 -3.90625 L 5.328125 -37.546875 C 5.328125 -38.535156 4.976562 -39.375 4.28125 -40.0625 C 3.59375 -40.75 2.757812 -41.09375 1.78125 -41.09375 L 1.78125 -41.453125 L 24.046875 -41.453125 C 25.972656 -41.453125 27.71875 -40.976562 29.28125 -40.03125 C 30.84375 -39.082031 32.085938 -37.816406 33.015625 -36.234375 C 33.941406 -34.660156 34.40625 -32.90625 34.40625 -30.96875 C 34.40625 -28.5625 33.675781 -26.429688 32.21875 -24.578125 C 30.757812 -22.722656 28.921875 -21.5 26.703125 -20.90625 Z M 15.75 -41.09375 L 15.75 -20.90625 L 17.9375 -20.90625 C 19.039062 -20.90625 20.046875 -21.359375 20.953125 -22.265625 C 21.867188 -23.171875 22.59375 -24.382812 23.125 -25.90625 C 23.65625 -27.425781 23.921875 -29.113281 23.921875 -30.96875 C 23.921875 -32.863281 23.65625 -34.570312 23.125 -36.09375 C 22.59375 -37.613281 21.867188 -38.828125 20.953125 -39.734375 C 20.046875 -40.640625 19.039062 -41.09375 17.9375 -41.09375 Z M 19.125 -0.359375 C 20.382812 -0.359375 21.535156 -0.8125 22.578125 -1.71875 C 23.628906 -2.625 24.460938 -3.847656 25.078125 -5.390625 C 25.691406 -6.929688 26 -8.628906 26 -10.484375 C 26 -12.335938 25.691406 -14.023438 25.078125 -15.546875 C 24.460938 -17.066406 23.628906 -18.28125 22.578125 -19.1875 C 21.535156 -20.09375 20.382812 -20.546875 19.125 -20.546875 L 15.75 -20.546875 L 15.75 -0.359375 Z M 19.125 -0.359375 "/></g></g></g><g fill="#222222" fill-opacity="1"><g transform="translate(208.891007, 204.158672)"><g><path d="M 28.359375 -4.4375 C 28.359375 -3.726562 28.59375 -3.097656 29.0625 -2.546875 C 29.539062 -1.992188 30.117188 -1.660156 30.796875 -1.546875 L 30.796875 -1.1875 L 20.671875 0.296875 L 20.484375 0.296875 C 20.210938 0.296875 19.976562 0.195312 19.78125 0 C 19.582031 -0.195312 19.484375 -0.429688 19.484375 -0.703125 L 19.484375 -1.59375 C 18.378906 -1.039062 17.144531 -0.585938 15.78125 -0.234375 C 14.414062 0.117188 13.039062 0.296875 11.65625 0.296875 C 10.28125 0.296875 9 0.03125 7.8125 -0.5 C 6.632812 -1.03125 5.6875 -1.878906 4.96875 -3.046875 C 4.257812 -4.210938 3.90625 -5.800781 3.90625 -7.8125 L 3.90625 -24.34375 C 3.90625 -25.09375 3.664062 -25.734375 3.1875 -26.265625 C 2.71875 -26.796875 2.148438 -27.117188 1.484375 -27.234375 L 1.484375 -27.59375 L 11.609375 -29.078125 L 11.78125 -29.078125 C 12.457031 -29.078125 12.796875 -28.738281 12.796875 -28.0625 L 12.796875 -8.640625 C 12.796875 -7.660156 12.535156 -6.863281 12.015625 -6.25 C 11.503906 -5.632812 10.992188 -5.070312 10.484375 -4.5625 C 9.972656 -4.050781 9.71875 -3.421875 9.71875 -2.671875 C 9.71875 -2.035156 10.097656 -1.53125 10.859375 -1.15625 C 11.628906 -0.78125 12.585938 -0.59375 13.734375 -0.59375 C 15.234375 -0.59375 16.523438 -0.796875 17.609375 -1.203125 C 18.703125 -1.617188 19.328125 -1.867188 19.484375 -1.953125 L 19.484375 -24.34375 C 19.484375 -25.09375 19.242188 -25.734375 18.765625 -26.265625 C 18.296875 -26.796875 17.726562 -27.117188 17.0625 -27.234375 L 17.0625 -27.59375 L 27.1875 -29.078125 L 27.359375 -29.078125 C 28.023438 -29.078125 28.359375 -28.738281 28.359375 -28.0625 Z M 28.359375 -4.4375 "/></g></g></g><g fill="#222222" fill-opacity="1"><g transform="translate(234.826338, 204.158672)"><g><path d="M 28.84375 -4.4375 C 28.84375 -3.726562 29.078125 -3.097656 29.546875 -2.546875 C 30.023438 -1.992188 30.597656 -1.660156 31.265625 -1.546875 L 31.265625 -1.1875 L 21.140625 0.296875 C 21.097656 0.296875 21.066406 0.296875 21.046875 0.296875 C 21.023438 0.296875 21 0.296875 20.96875 0.296875 C 20.6875 0.296875 20.445312 0.1875 20.25 -0.03125 C 20.050781 -0.25 19.953125 -0.492188 19.953125 -0.765625 L 19.953125 -2.1875 C 18.847656 -1.320312 17.65625 -0.660156 16.375 -0.203125 C 15.09375 0.242188 13.757812 0.390625 12.375 0.234375 C 10.40625 0.0351562 8.640625 -0.722656 7.078125 -2.046875 C 5.515625 -3.367188 4.289062 -5.066406 3.40625 -7.140625 C 2.519531 -9.210938 2.078125 -11.472656 2.078125 -13.921875 C 2.078125 -16.242188 2.441406 -18.375 3.171875 -20.3125 C 3.898438 -22.25 4.875 -23.914062 6.09375 -25.3125 C 7.320312 -26.71875 8.6875 -27.796875 10.1875 -28.546875 C 11.6875 -29.296875 13.207031 -29.671875 14.75 -29.671875 C 15.769531 -29.671875 16.742188 -29.539062 17.671875 -29.28125 C 18.597656 -29.03125 19.359375 -28.742188 19.953125 -28.421875 L 19.953125 -36.71875 C 19.953125 -37.425781 19.710938 -38.054688 19.234375 -38.609375 C 18.765625 -39.160156 18.195312 -39.5 17.53125 -39.625 L 17.53125 -39.96875 L 27.65625 -41.453125 C 27.695312 -41.453125 27.726562 -41.453125 27.75 -41.453125 C 27.769531 -41.453125 27.796875 -41.453125 27.828125 -41.453125 C 28.503906 -41.453125 28.84375 -41.097656 28.84375 -40.390625 Z M 18 -2.1875 C 18.59375 -2.1875 19.242188 -2.347656 19.953125 -2.671875 L 19.953125 -28.015625 C 19.242188 -28.328125 18.59375 -28.484375 18 -28.484375 C 16.695312 -28.484375 15.507812 -27.890625 14.4375 -26.703125 C 13.375 -25.523438 12.515625 -23.945312 11.859375 -21.96875 C 11.210938 -20 10.890625 -17.789062 10.890625 -15.34375 C 10.890625 -12.925781 11.210938 -10.722656 11.859375 -8.734375 C 12.515625 -6.742188 13.375 -5.15625 14.4375 -3.96875 C 15.507812 -2.78125 16.695312 -2.1875 18 -2.1875 Z M 18 -2.1875 "/></g></g></g><g fill="#222222" fill-opacity="1"><g transform="translate(261.235387, 204.158672)"><g><path d="M 28.84375 -4.4375 C 28.84375 -3.726562 29.078125 -3.097656 29.546875 -2.546875 C 30.023438 -1.992188 30.597656 -1.660156 31.265625 -1.546875 L 31.265625 -1.1875 L 21.140625 0.296875 C 21.097656 0.296875 21.066406 0.296875 21.046875 0.296875 C 21.023438 0.296875 21 0.296875 20.96875 0.296875 C 20.6875 0.296875 20.445312 0.1875 20.25 -0.03125 C 20.050781 -0.25 19.953125 -0.492188 19.953125 -0.765625 L 19.953125 -2.1875 C 18.847656 -1.320312 17.65625 -0.660156 16.375 -0.203125 C 15.09375 0.242188 13.757812 0.390625 12.375 0.234375 C 10.40625 0.0351562 8.640625 -0.722656 7.078125 -2.046875 C 5.515625 -3.367188 4.289062 -5.066406 3.40625 -7.140625 C 2.519531 -9.210938 2.078125 -11.472656 2.078125 -13.921875 C 2.078125 -16.242188 2.441406 -18.375 3.171875 -20.3125 C 3.898438 -22.25 4.875 -23.914062 6.09375 -25.3125 C 7.320312 -26.71875 8.6875 -27.796875 10.1875 -28.546875 C 11.6875 -29.296875 13.207031 -29.671875 14.75 -29.671875 C 15.769531 -29.671875 16.742188 -29.539062 17.671875 -29.28125 C 18.597656 -29.03125 19.359375 -28.742188 19.953125 -28.421875 L 19.953125 -36.71875 C 19.953125 -37.425781 19.710938 -38.054688 19.234375 -38.609375 C 18.765625 -39.160156 18.195312 -39.5 17.53125 -39.625 L 17.53125 -39.96875 L 27.65625 -41.453125 C 27.695312 -41.453125 27.726562 -41.453125 27.75 -41.453125 C 27.769531 -41.453125 27.796875 -41.453125 27.828125 -41.453125 C 28.503906 -41.453125 28.84375 -41.097656 28.84375 -40.390625 Z M 18 -2.1875 C 18.59375 -2.1875 19.242188 -2.347656 19.953125 -2.671875 L 19.953125 -28.015625 C 19.242188 -28.328125 18.59375 -28.484375 18 -28.484375 C 16.695312 -28.484375 15.507812 -27.890625 14.4375 -26.703125 C 13.375 -25.523438 12.515625 -23.945312 11.859375 -21.96875 C 11.210938 -20 10.890625 -17.789062 10.890625 -15.34375 C 10.890625 -12.925781 11.210938 -10.722656 11.859375 -8.734375 C 12.515625 -6.742188 13.375 -5.15625 14.4375 -3.96875 C 15.507812 -2.78125 16.695312 -2.1875 18 -2.1875 Z M 18 -2.1875 "/></g></g></g><g fill="#222222" fill-opacity="1"><g transform="translate(287.644435, 204.158672)"><g><path d="M 23.6875 -29.078125 L 34.9375 -29.078125 L 34.9375 -28.71875 C 33.875 -28.601562 32.804688 -28.21875 31.734375 -27.5625 C 30.671875 -26.914062 29.703125 -26.128906 28.828125 -25.203125 C 27.960938 -24.273438 27.296875 -23.316406 26.828125 -22.328125 L 14.265625 3.96875 C 13.710938 5.1875 13.46875 6.425781 13.53125 7.6875 C 13.59375 8.957031 13.9375 10.09375 14.5625 11.09375 C 15.195312 12.101562 16.046875 12.882812 17.109375 13.4375 C 17.898438 13.789062 18.75 13.96875 19.65625 13.96875 C 20.332031 13.96875 20.671875 13.613281 20.671875 12.90625 C 20.671875 12.394531 20.441406 11.910156 19.984375 11.453125 C 19.535156 11.003906 19.070312 10.484375 18.59375 9.890625 C 18.125 9.296875 17.890625 8.546875 17.890625 7.640625 C 17.890625 6.378906 18.34375 5.289062 19.25 4.375 C 20.15625 3.46875 21.21875 3.015625 22.4375 3.015625 C 23.707031 3.015625 24.796875 3.46875 25.703125 4.375 C 26.609375 5.289062 27.0625 6.378906 27.0625 7.640625 C 27.0625 8.742188 26.742188 9.78125 26.109375 10.75 C 25.484375 11.71875 24.65625 12.515625 23.625 13.140625 C 22.601562 13.773438 21.5 14.160156 20.3125 14.296875 C 19.125 14.441406 18 14.253906 16.9375 13.734375 C 15.789062 13.179688 14.890625 12.363281 14.234375 11.28125 C 13.585938 10.195312 13.234375 9.003906 13.171875 7.703125 C 13.117188 6.398438 13.382812 5.113281 13.96875 3.84375 L 15.8125 0 L 3.203125 -26.46875 C 2.921875 -27.019531 2.503906 -27.519531 1.953125 -27.96875 C 1.398438 -28.425781 0.847656 -28.675781 0.296875 -28.71875 L 0.296875 -29.078125 L 10.421875 -29.078125 C 11.453125 -29.078125 12.160156 -28.679688 12.546875 -27.890625 L 20.84375 -10.546875 L 26.828125 -23.09375 C 27.066406 -23.644531 27.1875 -24.21875 27.1875 -24.8125 C 27.1875 -25.84375 26.847656 -26.734375 26.171875 -27.484375 C 25.503906 -28.234375 24.675781 -28.644531 23.6875 -28.71875 Z M 23.6875 -29.078125 "/></g></g></g><g fill="#222222" fill-opacity="1"><g transform="translate(58.557902, 157.302518)"><g><path d="M 4.125 -4.15625 C 4.101562 -4.519531 3.960938 -4.804688 3.703125 -5.015625 C 3.441406 -5.234375 3.097656 -5.34375 2.671875 -5.34375 C 2.234375 -5.34375 1.898438 -5.253906 1.671875 -5.078125 C 1.441406 -4.898438 1.328125 -4.644531 1.328125 -4.3125 C 1.328125 -4.132812 1.375 -3.976562 1.46875 -3.84375 C 1.570312 -3.71875 1.753906 -3.628906 2.015625 -3.578125 L 3.6875 -3.1875 C 4.144531 -3.09375 4.484375 -2.90625 4.703125 -2.625 C 4.921875 -2.351562 5.03125 -2.019531 5.03125 -1.625 C 5.03125 -1.039062 4.816406 -0.597656 4.390625 -0.296875 C 3.960938 0.00390625 3.410156 0.15625 2.734375 0.15625 C 2.210938 0.15625 1.800781 0.0859375 1.5 -0.046875 C 1.195312 -0.179688 0.929688 -0.390625 0.703125 -0.671875 C 0.472656 -0.960938 0.359375 -1.367188 0.359375 -1.890625 L 1.09375 -1.890625 C 1.09375 -1.453125 1.238281 -1.113281 1.53125 -0.875 C 1.820312 -0.632812 2.21875 -0.515625 2.71875 -0.515625 C 3.207031 -0.515625 3.582031 -0.597656 3.84375 -0.765625 C 4.113281 -0.941406 4.25 -1.191406 4.25 -1.515625 C 4.25 -1.796875 4.171875 -2.007812 4.015625 -2.15625 C 3.859375 -2.300781 3.546875 -2.425781 3.078125 -2.53125 L 1.8125 -2.828125 C 1.382812 -2.921875 1.066406 -3.085938 0.859375 -3.328125 C 0.648438 -3.566406 0.546875 -3.859375 0.546875 -4.203125 C 0.546875 -4.734375 0.722656 -5.164062 1.078125 -5.5 C 1.441406 -5.84375 1.941406 -6.015625 2.578125 -6.015625 C 3.296875 -6.015625 3.847656 -5.863281 4.234375 -5.5625 C 4.617188 -5.269531 4.828125 -4.800781 4.859375 -4.15625 Z M 4.125 -4.15625 "/></g></g></g><g fill="#222222" fill-opacity="1"><g transform="translate(63.743586, 157.302518)"><g><path d="M 2.078125 -5.15625 L 0.09375 -5.15625 L 0.09375 -5.859375 L 4.859375 -5.859375 L 4.859375 -5.15625 L 2.875 -5.15625 L 2.875 0 L 2.078125 0 Z M 2.078125 -5.15625 "/></g></g></g><g fill="#222222" fill-opacity="1"><g transform="translate(68.482745, 157.302518)"><g><path d="M 5.234375 -5.859375 L 5.234375 -2.0625 C 5.234375 -1.40625 5.023438 -0.867188 4.609375 -0.453125 C 4.203125 -0.046875 3.625 0.15625 2.875 0.15625 C 2.175781 0.15625 1.625 -0.03125 1.21875 -0.40625 C 0.820312 -0.789062 0.625 -1.304688 0.625 -1.953125 L 0.625 -5.859375 L 1.40625 -5.859375 L 1.40625 -2.171875 C 1.40625 -1.628906 1.539062 -1.222656 1.8125 -0.953125 C 2.082031 -0.679688 2.441406 -0.546875 2.890625 -0.546875 C 3.378906 -0.546875 3.757812 -0.679688 4.03125 -0.953125 C 4.300781 -1.222656 4.4375 -1.625 4.4375 -2.15625 L 4.4375 -5.859375 Z M 5.234375 -5.859375 "/></g></g></g><g fill="#222222" fill-opacity="1"><g transform="translate(74.106979, 157.302518)"><g><path d="M 1.453125 -0.671875 L 3 -0.671875 C 3.53125 -0.671875 3.941406 -0.875 4.234375 -1.28125 C 4.535156 -1.695312 4.6875 -2.257812 4.6875 -2.96875 C 4.6875 -3.664062 4.535156 -4.207031 4.234375 -4.59375 C 3.929688 -4.976562 3.492188 -5.175781 2.921875 -5.1875 L 1.453125 -5.1875 Z M 0.65625 -5.859375 L 3.046875 -5.859375 C 3.804688 -5.859375 4.40625 -5.59375 4.84375 -5.0625 C 5.28125 -4.539062 5.5 -3.859375 5.5 -3.015625 C 5.5 -2.109375 5.28125 -1.378906 4.84375 -0.828125 C 4.40625 -0.273438 3.796875 0 3.015625 0 L 0.65625 0 Z M 0.65625 -5.859375 "/></g></g></g><g fill="#222222" fill-opacity="1"><g transform="translate(79.767095, 157.302518)"><g><path d="M 3.046875 0 L 2.25 0 L 2.25 -2.359375 L 0.046875 -5.859375 L 0.96875 -5.859375 L 2.65625 -3.046875 L 4.328125 -5.859375 L 5.265625 -5.859375 L 3.046875 -2.359375 Z M 3.046875 0 "/></g></g></g><g fill="#222222" fill-opacity="1"><g transform="translate(84.83716, 157.302518)"><g/></g></g><g fill="#222222" fill-opacity="1"><g transform="translate(86.610117, 157.302518)"><g><path d="M 5.515625 0 L 5.515625 -3.46875 C 5.515625 -3.507812 5.515625 -3.726562 5.515625 -4.125 C 5.523438 -4.519531 5.53125 -4.785156 5.53125 -4.921875 L 5.5 -4.921875 L 3.859375 0 L 3.078125 0 L 1.4375 -4.921875 L 1.40625 -4.921875 C 1.40625 -4.722656 1.40625 -4.441406 1.40625 -4.078125 C 1.414062 -3.710938 1.421875 -3.507812 1.421875 -3.46875 L 1.421875 0 L 0.65625 0 L 0.65625 -5.859375 L 1.796875 -5.859375 L 3.46875 -0.90625 L 3.484375 -0.90625 L 5.140625 -5.859375 L 6.28125 -5.859375 L 6.28125 0 Z M 5.515625 0 "/></g></g></g><g fill="#222222" fill-opacity="1"><g transform="translate(93.330729, 157.302518)"><g><path d="M 3.59375 -2.40625 L 2.734375 -4.984375 L 2.71875 -4.984375 L 1.765625 -2.40625 Z M 1.53125 -1.703125 L 0.90625 0 L 0.09375 0 L 2.3125 -5.859375 L 3.203125 -5.859375 L 5.328125 0 L 4.46875 0 L 3.875 -1.703125 Z M 1.53125 -1.703125 "/></g></g></g><g fill="#222222" fill-opacity="1"><g transform="translate(98.55628, 157.302518)"><g><path d="M 2.078125 -5.15625 L 0.09375 -5.15625 L 0.09375 -5.859375 L 4.859375 -5.859375 L 4.859375 -5.15625 L 2.875 -5.15625 L 2.875 0 L 2.078125 0 Z M 2.078125 -5.15625 "/></g></g></g><g fill="#222222" fill-opacity="1"><g transform="translate(103.295438, 157.302518)"><g><path d="M 4.734375 -4.109375 C 4.648438 -4.503906 4.46875 -4.800781 4.1875 -5 C 3.90625 -5.207031 3.539062 -5.3125 3.09375 -5.3125 C 2.519531 -5.3125 2.054688 -5.101562 1.703125 -4.6875 C 1.347656 -4.269531 1.171875 -3.707031 1.171875 -3 C 1.171875 -2.164062 1.335938 -1.546875 1.671875 -1.140625 C 2.003906 -0.742188 2.488281 -0.546875 3.125 -0.546875 C 3.539062 -0.546875 3.894531 -0.679688 4.1875 -0.953125 C 4.488281 -1.234375 4.691406 -1.632812 4.796875 -2.15625 L 5.5625 -2.15625 C 5.457031 -1.40625 5.171875 -0.832031 4.703125 -0.4375 C 4.234375 -0.0390625 3.664062 0.15625 3 0.15625 C 2.195312 0.15625 1.554688 -0.117188 1.078125 -0.671875 C 0.597656 -1.222656 0.359375 -1.988281 0.359375 -2.96875 C 0.359375 -3.90625 0.609375 -4.644531 1.109375 -5.1875 C 1.609375 -5.738281 2.269531 -6.015625 3.09375 -6.015625 C 3.78125 -6.015625 4.332031 -5.835938 4.75 -5.484375 C 5.175781 -5.140625 5.425781 -4.679688 5.5 -4.109375 Z M 4.734375 -4.109375 "/></g></g></g><g fill="#222222" fill-opacity="1"><g transform="translate(108.979477, 157.302518)"><g><path d="M 5.296875 0 L 4.515625 0 L 4.515625 -2.734375 L 1.4375 -2.734375 L 1.4375 0 L 0.65625 0 L 0.65625 -5.859375 L 1.4375 -5.859375 L 1.4375 -3.4375 L 4.515625 -3.4375 L 4.515625 -5.859375 L 5.296875 -5.859375 Z M 5.296875 0 "/></g></g></g><g fill="#222222" fill-opacity="1"><g transform="translate(114.719332, 157.302518)"><g><path d="M 5.515625 0 L 5.515625 -3.46875 C 5.515625 -3.507812 5.515625 -3.726562 5.515625 -4.125 C 5.523438 -4.519531 5.53125 -4.785156 5.53125 -4.921875 L 5.5 -4.921875 L 3.859375 0 L 3.078125 0 L 1.4375 -4.921875 L 1.40625 -4.921875 C 1.40625 -4.722656 1.40625 -4.441406 1.40625 -4.078125 C 1.414062 -3.710938 1.421875 -3.507812 1.421875 -3.46875 L 1.421875 0 L 0.65625 0 L 0.65625 -5.859375 L 1.796875 -5.859375 L 3.46875 -0.90625 L 3.484375 -0.90625 L 5.140625 -5.859375 L 6.28125 -5.859375 L 6.28125 0 Z M 5.515625 0 "/></g></g></g><g fill="#222222" fill-opacity="1"><g transform="translate(121.439946, 157.302518)"><g><path d="M 3.59375 -2.40625 L 2.734375 -4.984375 L 2.71875 -4.984375 L 1.765625 -2.40625 Z M 1.53125 -1.703125 L 0.90625 0 L 0.09375 0 L 2.3125 -5.859375 L 3.203125 -5.859375 L 5.328125 0 L 4.46875 0 L 3.875 -1.703125 Z M 1.53125 -1.703125 "/></g></g></g><g fill="#222222" fill-opacity="1"><g transform="translate(126.6655, 157.302518)"><g><path d="M 1.4375 0 L 0.65625 0 L 0.65625 -5.859375 L 1.4375 -5.859375 L 1.4375 -3.03125 L 4.296875 -5.859375 L 5.390625 -5.859375 L 2.9375 -3.5 L 5.453125 0 L 4.421875 0 L 2.375 -2.9375 L 1.4375 -2.0625 Z M 1.4375 0 "/></g></g></g><g fill="#222222" fill-opacity="1"><g transform="translate(131.930922, 157.302518)"><g><path d="M 1.453125 0 L 0.65625 0 L 0.65625 -5.859375 L 1.453125 -5.859375 Z M 1.453125 0 "/></g></g></g><g fill="#222222" fill-opacity="1"><g transform="translate(133.815513, 157.302518)"><g><path d="M 4.546875 -5.859375 L 5.3125 -5.859375 L 5.3125 0 L 4.421875 0 L 1.4375 -4.734375 L 1.421875 -4.734375 L 1.421875 0 L 0.65625 0 L 0.65625 -5.859375 L 1.59375 -5.859375 L 4.53125 -1.125 L 4.546875 -1.125 Z M 4.546875 -5.859375 "/></g></g></g><g fill="#222222" fill-opacity="1"><g transform="translate(139.563342, 157.302518)"><g><path d="M 3.140625 -3.140625 L 5.71875 -3.140625 L 5.71875 0 L 5.203125 0 L 5.015625 -0.765625 C 4.765625 -0.441406 4.46875 -0.207031 4.125 -0.0625 C 3.789062 0.0820312 3.441406 0.15625 3.078125 0.15625 C 2.492188 0.15625 2.003906 0.03125 1.609375 -0.21875 C 1.210938 -0.476562 0.90625 -0.832031 0.6875 -1.28125 C 0.46875 -1.738281 0.359375 -2.304688 0.359375 -2.984375 C 0.359375 -3.828125 0.609375 -4.539062 1.109375 -5.125 C 1.609375 -5.71875 2.285156 -6.015625 3.140625 -6.015625 C 3.773438 -6.015625 4.328125 -5.835938 4.796875 -5.484375 C 5.265625 -5.128906 5.539062 -4.664062 5.625 -4.09375 L 4.859375 -4.09375 C 4.765625 -4.476562 4.566406 -4.773438 4.265625 -4.984375 C 3.960938 -5.203125 3.570312 -5.3125 3.09375 -5.3125 C 2.519531 -5.3125 2.054688 -5.09375 1.703125 -4.65625 C 1.347656 -4.226562 1.171875 -3.65625 1.171875 -2.9375 C 1.171875 -2.101562 1.34375 -1.488281 1.6875 -1.09375 C 2.039062 -0.707031 2.519531 -0.515625 3.125 -0.515625 C 3.519531 -0.515625 3.851562 -0.59375 4.125 -0.75 C 4.394531 -0.90625 4.601562 -1.117188 4.75 -1.390625 C 4.894531 -1.660156 4.96875 -2.015625 4.96875 -2.453125 L 3.140625 -2.453125 Z M 3.140625 -3.140625 "/></g></g></g><g fill="#222222" fill-opacity="1"><g transform="translate(145.63809, 157.302518)"><g/></g></g><g fill="#222222" fill-opacity="1"><g transform="translate(147.41105, 157.302518)"><g><path d="M 3.59375 -2.40625 L 2.734375 -4.984375 L 2.71875 -4.984375 L 1.765625 -2.40625 Z M 1.53125 -1.703125 L 0.90625 0 L 0.09375 0 L 2.3125 -5.859375 L 3.203125 -5.859375 L 5.328125 0 L 4.46875 0 L 3.875 -1.703125 Z M 1.53125 -1.703125 "/></g></g></g><g fill="#222222" fill-opacity="1"><g transform="translate(152.636598, 157.302518)"><g><path d="M 1.453125 -3.15625 L 3.03125 -3.15625 C 3.425781 -3.15625 3.722656 -3.238281 3.921875 -3.40625 C 4.117188 -3.582031 4.21875 -3.847656 4.21875 -4.203125 C 4.21875 -4.523438 4.125 -4.769531 3.9375 -4.9375 C 3.75 -5.101562 3.457031 -5.1875 3.0625 -5.1875 L 1.453125 -5.1875 Z M 1.453125 0 L 0.65625 0 L 0.65625 -5.859375 L 3.296875 -5.859375 C 3.828125 -5.859375 4.25 -5.707031 4.5625 -5.40625 C 4.882812 -5.101562 5.046875 -4.707031 5.046875 -4.21875 C 5.046875 -3.707031 4.890625 -3.289062 4.578125 -2.96875 C 4.273438 -2.644531 3.847656 -2.484375 3.296875 -2.484375 L 1.453125 -2.484375 Z M 1.453125 0 "/></g></g></g><g fill="#222222" fill-opacity="1"><g transform="translate(157.6947, 157.302518)"><g><path d="M 1.453125 -3.15625 L 3.03125 -3.15625 C 3.425781 -3.15625 3.722656 -3.238281 3.921875 -3.40625 C 4.117188 -3.582031 4.21875 -3.847656 4.21875 -4.203125 C 4.21875 -4.523438 4.125 -4.769531 3.9375 -4.9375 C 3.75 -5.101562 3.457031 -5.1875 3.0625 -5.1875 L 1.453125 -5.1875 Z M 1.453125 0 L 0.65625 0 L 0.65625 -5.859375 L 3.296875 -5.859375 C 3.828125 -5.859375 4.25 -5.707031 4.5625 -5.40625 C 4.882812 -5.101562 5.046875 -4.707031 5.046875 -4.21875 C 5.046875 -3.707031 4.890625 -3.289062 4.578125 -2.96875 C 4.273438 -2.644531 3.847656 -2.484375 3.296875 -2.484375 L 1.453125 -2.484375 Z M 1.453125 0 "/></g></g></g><g fill="#222222" fill-opacity="1"><g transform="translate(178.408189, 214.932586)"><g><path d="M 4.125 -4.15625 C 4.101562 -4.519531 3.960938 -4.804688 3.703125 -5.015625 C 3.441406 -5.234375 3.097656 -5.34375 2.671875 -5.34375 C 2.234375 -5.34375 1.898438 -5.253906 1.671875 -5.078125 C 1.441406 -4.898438 1.328125 -4.644531 1.328125 -4.3125 C 1.328125 -4.132812 1.375 -3.976562 1.46875 -3.84375 C 1.570312 -3.71875 1.753906 -3.628906 2.015625 -3.578125 L 3.6875 -3.1875 C 4.144531 -3.09375 4.484375 -2.90625 4.703125 -2.625 C 4.921875 -2.351562 5.03125 -2.019531 5.03125 -1.625 C 5.03125 -1.039062 4.816406 -0.597656 4.390625 -0.296875 C 3.960938 0.00390625 3.410156 0.15625 2.734375 0.15625 C 2.210938 0.15625 1.800781 0.0859375 1.5 -0.046875 C 1.195312 -0.179688 0.929688 -0.390625 0.703125 -0.671875 C 0.472656 -0.960938 0.359375 -1.367188 0.359375 -1.890625 L 1.09375 -1.890625 C 1.09375 -1.453125 1.238281 -1.113281 1.53125 -0.875 C 1.820312 -0.632812 2.21875 -0.515625 2.71875 -0.515625 C 3.207031 -0.515625 3.582031 -0.597656 3.84375 -0.765625 C 4.113281 -0.941406 4.25 -1.191406 4.25 -1.515625 C 4.25 -1.796875 4.171875 -2.007812 4.015625 -2.15625 C 3.859375 -2.300781 3.546875 -2.425781 3.078125 -2.53125 L 1.8125 -2.828125 C 1.382812 -2.921875 1.066406 -3.085938 0.859375 -3.328125 C 0.648438 -3.566406 0.546875 -3.859375 0.546875 -4.203125 C 0.546875 -4.734375 0.722656 -5.164062 1.078125 -5.5 C 1.441406 -5.84375 1.941406 -6.015625 2.578125 -6.015625 C 3.296875 -6.015625 3.847656 -5.863281 4.234375 -5.5625 C 4.617188 -5.269531 4.828125 -4.800781 4.859375 -4.15625 Z M 4.125 -4.15625 "/></g></g></g><g fill="#222222" fill-opacity="1"><g transform="translate(183.593872, 214.932586)"><g><path d="M 1.453125 0 L 0.65625 0 L 0.65625 -5.859375 L 1.453125 -5.859375 Z M 1.453125 0 "/></g></g></g><g fill="#222222" fill-opacity="1"><g transform="translate(185.478462, 214.932586)"><g><path d="M 4.546875 -5.859375 L 5.3125 -5.859375 L 5.3125 0 L 4.421875 0 L 1.4375 -4.734375 L 1.421875 -4.734375 L 1.421875 0 L 0.65625 0 L 0.65625 -5.859375 L 1.59375 -5.859375 L 4.53125 -1.125 L 4.546875 -1.125 Z M 4.546875 -5.859375 "/></g></g></g><g fill="#222222" fill-opacity="1"><g transform="translate(191.226288, 214.932586)"><g><path d="M 4.734375 -4.109375 C 4.648438 -4.503906 4.46875 -4.800781 4.1875 -5 C 3.90625 -5.207031 3.539062 -5.3125 3.09375 -5.3125 C 2.519531 -5.3125 2.054688 -5.101562 1.703125 -4.6875 C 1.347656 -4.269531 1.171875 -3.707031 1.171875 -3 C 1.171875 -2.164062 1.335938 -1.546875 1.671875 -1.140625 C 2.003906 -0.742188 2.488281 -0.546875 3.125 -0.546875 C 3.539062 -0.546875 3.894531 -0.679688 4.1875 -0.953125 C 4.488281 -1.234375 4.691406 -1.632812 4.796875 -2.15625 L 5.5625 -2.15625 C 5.457031 -1.40625 5.171875 -0.832031 4.703125 -0.4375 C 4.234375 -0.0390625 3.664062 0.15625 3 0.15625 C 2.195312 0.15625 1.554688 -0.117188 1.078125 -0.671875 C 0.597656 -1.222656 0.359375 -1.988281 0.359375 -2.96875 C 0.359375 -3.90625 0.609375 -4.644531 1.109375 -5.1875 C 1.609375 -5.738281 2.269531 -6.015625 3.09375 -6.015625 C 3.78125 -6.015625 4.332031 -5.835938 4.75 -5.484375 C 5.175781 -5.140625 5.425781 -4.679688 5.5 -4.109375 Z M 4.734375 -4.109375 "/></g></g></g><g fill="#222222" fill-opacity="1"><g transform="translate(196.910325, 214.932586)"><g><path d="M 4.984375 0 L 0.65625 0 L 0.65625 -5.859375 L 4.9375 -5.859375 L 4.9375 -5.15625 L 1.453125 -5.15625 L 1.453125 -3.375 L 4.671875 -3.375 L 4.671875 -2.671875 L 1.453125 -2.671875 L 1.453125 -0.703125 L 4.984375 -0.703125 Z M 4.984375 0 "/></g></g></g><g fill="#222222" fill-opacity="1"><g transform="translate(201.996337, 214.932586)"><g/></g></g><g fill="#222222" fill-opacity="1"><g transform="translate(203.769295, 214.932586)"><g><path d="M 0.359375 -3.6875 C 0.359375 -4.363281 0.53125 -4.875 0.875 -5.21875 C 1.226562 -5.570312 1.71875 -5.75 2.34375 -5.75 C 2.875 -5.75 3.304688 -5.585938 3.640625 -5.265625 C 3.972656 -4.941406 4.140625 -4.53125 4.140625 -4.03125 C 4.140625 -3.632812 4.039062 -3.300781 3.84375 -3.03125 C 3.65625 -2.757812 3.375 -2.523438 3 -2.328125 L 2.015625 -1.78125 C 1.429688 -1.457031 1.097656 -1.085938 1.015625 -0.671875 L 4.140625 -0.671875 L 4.140625 0 L 0.21875 0 C 0.238281 -0.539062 0.351562 -0.988281 0.5625 -1.34375 C 0.769531 -1.707031 1.101562 -2.019531 1.5625 -2.28125 L 2.59375 -2.875 C 2.863281 -3.03125 3.0625 -3.191406 3.1875 -3.359375 C 3.3125 -3.535156 3.375 -3.769531 3.375 -4.0625 C 3.375 -4.351562 3.269531 -4.597656 3.0625 -4.796875 C 2.863281 -4.992188 2.585938 -5.09375 2.234375 -5.09375 C 1.847656 -5.09375 1.554688 -4.96875 1.359375 -4.71875 C 1.171875 -4.46875 1.078125 -4.125 1.078125 -3.6875 Z M 0.359375 -3.6875 "/></g></g></g><g fill="#222222" fill-opacity="1"><g transform="translate(208.089836, 214.932586)"><g><path d="M 3.46875 -2.796875 C 3.46875 -3.566406 3.363281 -4.140625 3.15625 -4.515625 C 2.957031 -4.898438 2.660156 -5.09375 2.265625 -5.09375 C 1.878906 -5.09375 1.582031 -4.898438 1.375 -4.515625 C 1.164062 -4.140625 1.0625 -3.566406 1.0625 -2.796875 C 1.0625 -2.046875 1.164062 -1.472656 1.375 -1.078125 C 1.582031 -0.679688 1.878906 -0.484375 2.265625 -0.484375 C 2.660156 -0.484375 2.957031 -0.675781 3.15625 -1.0625 C 3.363281 -1.445312 3.46875 -2.023438 3.46875 -2.796875 Z M 4.234375 -2.796875 C 4.234375 -1.847656 4.0625 -1.117188 3.71875 -0.609375 C 3.382812 -0.0976562 2.898438 0.15625 2.265625 0.15625 C 1.609375 0.15625 1.113281 -0.109375 0.78125 -0.640625 C 0.457031 -1.171875 0.296875 -1.890625 0.296875 -2.796875 C 0.296875 -3.722656 0.460938 -4.445312 0.796875 -4.96875 C 1.140625 -5.488281 1.628906 -5.75 2.265625 -5.75 C 2.898438 -5.75 3.382812 -5.488281 3.71875 -4.96875 C 4.0625 -4.445312 4.234375 -3.722656 4.234375 -2.796875 Z M 4.234375 -2.796875 "/></g></g></g><g fill="#222222" fill-opacity="1"><g transform="translate(212.410377, 214.932586)"><g><path d="M 0.359375 -3.6875 C 0.359375 -4.363281 0.53125 -4.875 0.875 -5.21875 C 1.226562 -5.570312 1.71875 -5.75 2.34375 -5.75 C 2.875 -5.75 3.304688 -5.585938 3.640625 -5.265625 C 3.972656 -4.941406 4.140625 -4.53125 4.140625 -4.03125 C 4.140625 -3.632812 4.039062 -3.300781 3.84375 -3.03125 C 3.65625 -2.757812 3.375 -2.523438 3 -2.328125 L 2.015625 -1.78125 C 1.429688 -1.457031 1.097656 -1.085938 1.015625 -0.671875 L 4.140625 -0.671875 L 4.140625 0 L 0.21875 0 C 0.238281 -0.539062 0.351562 -0.988281 0.5625 -1.34375 C 0.769531 -1.707031 1.101562 -2.019531 1.5625 -2.28125 L 2.59375 -2.875 C 2.863281 -3.03125 3.0625 -3.191406 3.1875 -3.359375 C 3.3125 -3.535156 3.375 -3.769531 3.375 -4.0625 C 3.375 -4.351562 3.269531 -4.597656 3.0625 -4.796875 C 2.863281 -4.992188 2.585938 -5.09375 2.234375 -5.09375 C 1.847656 -5.09375 1.554688 -4.96875 1.359375 -4.71875 C 1.171875 -4.46875 1.078125 -4.125 1.078125 -3.6875 Z M 0.359375 -3.6875 "/></g></g></g><g fill="#222222" fill-opacity="1"><g transform="translate(216.730918, 214.932586)"><g><path d="M 1.203125 -3.34375 C 1.515625 -3.582031 1.882812 -3.703125 2.3125 -3.703125 C 2.832031 -3.703125 3.273438 -3.53125 3.640625 -3.1875 C 4.015625 -2.84375 4.203125 -2.398438 4.203125 -1.859375 C 4.203125 -1.273438 4.019531 -0.789062 3.65625 -0.40625 C 3.300781 -0.03125 2.800781 0.15625 2.15625 0.15625 C 1.59375 0.15625 1.148438 0.0195312 0.828125 -0.25 C 0.503906 -0.519531 0.316406 -0.910156 0.265625 -1.421875 L 1 -1.421875 C 1.039062 -1.109375 1.160156 -0.867188 1.359375 -0.703125 C 1.566406 -0.546875 1.851562 -0.46875 2.21875 -0.46875 C 2.570312 -0.46875 2.863281 -0.585938 3.09375 -0.828125 C 3.320312 -1.078125 3.4375 -1.390625 3.4375 -1.765625 C 3.4375 -2.160156 3.316406 -2.472656 3.078125 -2.703125 C 2.835938 -2.941406 2.53125 -3.0625 2.15625 -3.0625 C 1.726562 -3.0625 1.375 -2.878906 1.09375 -2.515625 L 0.46875 -2.546875 L 0.90625 -5.609375 L 3.875 -5.609375 L 3.875 -4.921875 L 1.4375 -4.921875 Z M 1.203125 -3.34375 "/></g></g></g></svg>