<?xml version="1.0" standalone="no"?>
<!DOCTYPE svg PUBLIC "-//W3C//DTD SVG 20010904//EN"
 "http://www.w3.org/TR/2001/REC-SVG-20010904/DTD/svg10.dtd">
<svg version="1.0" xmlns="http://www.w3.org/2000/svg"
 width="348.000000pt" height="354.000000pt" viewBox="0 0 348.000000 354.000000"
 preserveAspectRatio="xMidYMid meet">

<g transform="translate(0.000000,354.000000) scale(0.100000,-0.100000)"
fill="#000000" stroke="none">
<path d="M1556 3320 c-361 -46 -669 -191 -929 -439 -289 -277 -456 -632 -487
-1036 -5 -67 -7 -146 -5 -176 3 -30 7 -84 10 -120 19 -219 123 -503 258 -704
146 -218 380 -426 606 -539 805 -405 1786 -68 2169 744 60 126 95 228 124 364
19 86 22 132 22 316 1 187 -2 229 -22 320 -140 643 -630 1125 -1269 1250 -122
24 -365 34 -477 20z m256 -571 c115 -25 209 -92 253 -184 22 -44 28 -73 32
-157 3 -57 10 -109 15 -115 6 -8 7 -48 3 -102 -7 -87 -18 -115 -45 -109 -6 2
-24 -30 -39 -72 -15 -41 -39 -98 -53 -125 -26 -49 -29 -92 -13 -171 7 -32 99
-68 262 -103 213 -45 282 -82 328 -175 35 -71 54 -168 61 -317 l7 -125 -32
-37 c-68 -77 -318 -139 -698 -171 -140 -12 -185 -12 -320 0 -287 25 -535 74
-634 124 -81 42 -89 57 -89 162 1 118 14 221 40 309 35 116 117 179 280 215
176 39 247 58 287 77 38 18 43 25 49 63 3 24 4 60 1 81 -7 55 -99 272 -112
266 -7 -2 -17 3 -24 11 -16 19 -28 206 -14 206 6 0 12 44 15 108 5 128 25 178
100 248 92 86 215 119 340 93z"/>
</g>
</svg>
