<?xml version="1.0" standalone="no"?>
<!DOCTYPE svg PUBLIC "-//W3C//DTD SVG 20010904//EN"
 "http://www.w3.org/TR/2001/REC-SVG-20010904/DTD/svg10.dtd">
<svg version="1.0" xmlns="http://www.w3.org/2000/svg"
 width="260.000000pt" height="260.000000pt" viewBox="0 0 260.000000 260.000000"
 preserveAspectRatio="xMidYMid meet">

<g transform="translate(0.000000,260.000000) scale(0.100000,-0.100000)"
fill="#000000" stroke="none">
<path d="M1180 2274 c-284 -61 -493 -348 -452 -624 27 -185 119 -333 262 -421
l51 -31 -78 -32 c-227 -91 -390 -246 -493 -469 -47 -102 -70 -188 -77 -294
l-6 -83 918 0 918 0 -7 75 c-15 163 -81 336 -178 467 -98 133 -259 256 -405
308 -35 13 -63 26 -63 29 0 4 17 15 37 26 21 11 68 50 105 86 139 139 197 339
153 528 -27 111 -70 188 -155 273 -146 146 -336 204 -530 162z"/>
<path d="M580 2121 c-211 -67 -356 -278 -337 -491 12 -139 78 -261 185 -342
l61 -46 -52 -22 c-129 -55 -262 -172 -336 -294 -43 -72 -88 -203 -97 -284 l-7
-63 137 3 137 3 20 60 c71 214 226 421 409 545 l60 41 -39 52 c-94 125 -141
269 -141 427 0 144 39 281 109 386 l30 44 -42 -1 c-23 0 -67 -8 -97 -18z"/>
<path d="M1890 2135 c0 -4 9 -20 21 -36 32 -45 78 -153 94 -222 21 -90 19
-247 -5 -340 -23 -90 -68 -186 -121 -257 l-38 -50 62 -42 c175 -117 332 -325
401 -530 l25 -73 137 -3 137 -3 -6 59 c-25 242 -199 479 -423 578 l-59 26 30
21 c147 106 226 269 212 437 -15 183 -137 347 -306 411 -58 22 -161 37 -161
24z"/>
</g>
</svg>
