<svg width="300" height="180" xmlns="http://www.w3.org/2000/svg" fill="none">

 <g>
  <title>Layer 1</title>
  <path id="svg_1" fill="#222222" d="m68.7258,154.189c0.0906,1.26 -0.1719,2.45 -0.7875,3.575c-0.6094,1.119 -1.5,2.088 -2.675,2.913c-1.1688,0.819 -2.5188,1.462 -4.05,1.937c-1.525,0.475 -3.1438,0.713 -4.85,0.713c-2.2094,0 -4.2563,-0.363 -6.1375,-1.088c-1.875,-0.725 -3.375,-1.703 -4.5,-2.937c-1.125,-1.231 -1.6875,-2.625 -1.6875,-4.175c0,-1.381 0.4937,-2.569 1.4875,-3.563c1,-1 2.1937,-1.5 3.5875,-1.5c1.3906,0 2.5812,0.5 3.575,1.5c1,0.994 1.5,2.182 1.5,3.563c0,0.884 -0.1594,1.612 -0.475,2.187c-0.3188,0.569 -0.675,1.044 -1.075,1.425c-0.3938,0.375 -0.7219,0.738 -0.9875,1.088c-0.2688,0.344 -0.3563,0.734 -0.2625,1.175c0.125,0.6 0.5937,1.094 1.4125,1.475c0.825,0.375 2.0125,0.562 3.5625,0.562c0.8156,0 1.5875,-0.193 2.3125,-0.587c0.7312,-0.391 1.3281,-0.925 1.7875,-1.6c0.4562,-0.681 0.6875,-1.453 0.6875,-2.313c0,-1.2 -0.4125,-2.337 -1.2375,-3.412c-0.8188,-1.075 -1.875,-2.125 -3.175,-3.15c-1.2938,-1.025 -2.675,-2.056 -4.15,-3.1c-1.4688,-1.041 -2.8469,-2.128 -4.1375,-3.263c-1.2938,-1.14 -2.35,-2.34 -3.175,-3.6c-0.825,-1.265 -1.2375,-2.64 -1.2375,-4.125c0,-1.425 0.3781,-2.625 1.1375,-3.6c0.7562,-0.981 1.7437,-1.781 2.9625,-2.4c1.2156,-0.615 2.5281,-1.056 3.9375,-1.325c1.4062,-0.265 2.7406,-0.4 4,-0.4c1.5156,0 2.8406,0.113 3.975,0.338c1.1406,0.219 2.375,0.325 3.7,0.325c0.5406,0 1.025,-0.044 1.45,-0.138c0.425,-0.1 0.7937,-0.275 1.1125,-0.525l0.2875,0l0,8.95c0,0 -0.0344,0 -0.1,0c-0.0688,0 -0.1313,0 -0.1875,0c-0.2594,-1.325 -0.8,-2.65 -1.625,-3.975c-0.8188,-1.325 -1.8594,-2.428 -3.125,-3.312c-1.2594,-0.881 -2.7094,-1.325 -4.35,-1.325c-1.2,0 -2.275,0.309 -3.225,0.925c-0.9438,0.609 -1.4625,1.625 -1.5625,3.05c-0.0938,1.234 0.2156,2.372 0.925,3.412c0.7156,1.044 1.675,2.047 2.875,3.013c1.2,0.959 2.4812,1.922 3.85,2.887c1.375,0.96 2.6906,1.96 3.95,3c1.2656,1.044 2.3312,2.163 3.2,3.363c0.875,1.2 1.375,2.547 1.5,4.037z"/>
  <path id="svg_2" fill="#222222" d="m77.9117,161.627c0.5407,0 1.0157,-0.144 1.425,-0.437l0,0.337c-0.5687,0.409 -1.3437,0.85 -2.325,1.325c-0.975,0.475 -2.125,0.713 -3.45,0.713c-1.4593,0 -2.7093,-0.519 -3.75,-1.563c-1.0437,-1.041 -1.5625,-2.291 -1.5625,-3.75l0,-17.9l-1.9375,0l0,-0.287c1.7657,0 3.4157,-0.388 4.95,-1.163c1.5313,-0.775 2.8032,-1.806 3.8125,-3.1l0.2875,0l0,4.263l3.075,0l0,0.287l-3.075,0l0,18.713c0,0.693 0.25,1.293 0.75,1.8c0.5063,0.509 1.1063,0.762 1.8,0.762z"/>
  <path id="svg_3" fill="#222222" d="m97.6645,159.777c0,0.569 0.1875,1.072 0.5625,1.512c0.3812,0.444 0.8437,0.71 1.3875,0.8l0,0.288l-8.1,1.187l-0.15,0c-0.2188,0 -0.4063,-0.081 -0.5625,-0.237c-0.1594,-0.156 -0.2375,-0.344 -0.2375,-0.563l0,-0.712c-0.8844,0.444 -1.8719,0.806 -2.9625,1.087c-1.0938,0.282 -2.1938,0.425 -3.3,0.425c-1.1,0 -2.125,-0.212 -3.075,-0.637c-0.9438,-0.425 -1.7,-1.103 -2.275,-2.038c-0.5688,-0.931 -0.85,-2.203 -0.85,-3.812l0,-13.225c0,-0.6 -0.1938,-1.113 -0.575,-1.538c-0.375,-0.425 -0.8313,-0.681 -1.3625,-0.775l0,-0.287l8.1,-1.188l0.1375,0c0.5406,0 0.8125,0.272 0.8125,0.813l0,15.537c0,0.785 -0.2094,1.422 -0.625,1.913c-0.4094,0.494 -0.8188,0.944 -1.225,1.35c-0.4094,0.409 -0.6125,0.912 -0.6125,1.512c0,0.51 0.3031,0.913 0.9125,1.213c0.6156,0.3 1.3812,0.45 2.3,0.45c1.2,0 2.2312,-0.163 3.1,-0.488c0.875,-0.331 1.375,-0.531 1.5,-0.6l0,-17.912c0,-0.6 -0.1938,-1.113 -0.575,-1.538c-0.375,-0.425 -0.8313,-0.681 -1.3625,-0.775l0,-0.287l8.1,-1.188l0.1375,0c0.5312,0 0.8,0.272 0.8,0.813l0,18.9z"/>
  <path id="svg_4" fill="#222222" d="m118.8,159.777c0,0.569 0.188,1.072 0.563,1.512c0.381,0.444 0.84,0.71 1.375,0.8l0,0.288l-8.1,1.187c-0.035,0 -0.06,0 -0.075,0c-0.019,0 -0.038,0 -0.063,0c-0.225,0 -0.418,-0.087 -0.575,-0.262c-0.159,-0.175 -0.237,-0.369 -0.237,-0.588l0,-1.137c-0.885,0.694 -1.838,1.222 -2.863,1.587c-1.025,0.357 -2.093,0.475 -3.2,0.35c-1.575,-0.159 -2.987,-0.765 -4.237,-1.825c-1.25,-1.056 -2.2315,-2.415 -2.9377,-4.075c-0.7094,-1.656 -1.0625,-3.465 -1.0625,-5.425c0,-1.856 0.2906,-3.562 0.875,-5.112c0.5812,-1.55 1.3625,-2.881 2.3372,-4c0.982,-1.125 2.075,-1.988 3.275,-2.588c1.2,-0.6 2.416,-0.9 3.65,-0.9c0.816,0 1.594,0.107 2.338,0.313c0.74,0.2 1.35,0.431 1.825,0.687l0,-6.637c0,-0.566 -0.194,-1.069 -0.575,-1.513c-0.375,-0.44 -0.831,-0.712 -1.363,-0.812l0,-0.275l8.1,-1.188c0.032,0 0.057,0 0.075,0c0.016,0 0.038,0 0.063,0c0.54,0 0.812,0.285 0.812,0.85l0,28.763zm-8.675,1.8c0.475,0 0.994,-0.128 1.563,-0.388l0,-20.275c-0.569,-0.25 -1.088,-0.375 -1.563,-0.375c-1.043,0 -1.993,0.475 -2.85,1.425c-0.85,0.944 -1.537,2.207 -2.062,3.788c-0.519,1.575 -0.775,3.344 -0.775,5.3c0,1.934 0.256,3.697 0.775,5.287c0.525,1.594 1.212,2.863 2.062,3.813c0.857,0.95 1.807,1.425 2.85,1.425z"/>
  <path id="svg_5" fill="#222222" d="m135.802,140.064l9,0l0,0.288c-0.85,0.094 -1.706,0.4 -2.562,0.925c-0.85,0.519 -1.625,1.147 -2.325,1.887c-0.694,0.744 -1.225,1.51 -1.6,2.3l-10.05,21.038c-0.444,0.975 -0.638,1.966 -0.588,2.975c0.05,1.016 0.325,1.925 0.825,2.725c0.507,0.806 1.188,1.431 2.038,1.875c0.631,0.281 1.312,0.425 2.037,0.425c0.541,0 0.813,-0.284 0.813,-0.85c0,-0.409 -0.184,-0.797 -0.55,-1.163c-0.359,-0.359 -0.731,-0.775 -1.113,-1.25c-0.375,-0.475 -0.562,-1.075 -0.562,-1.8c0,-1.009 0.362,-1.881 1.087,-2.612c0.725,-0.725 1.575,-1.088 2.55,-1.088c1.016,0 1.888,0.363 2.613,1.088c0.725,0.731 1.087,1.603 1.087,2.612c0,0.882 -0.256,1.713 -0.762,2.488c-0.5,0.775 -1.163,1.412 -1.988,1.912c-0.818,0.507 -1.7,0.816 -2.65,0.925c-0.95,0.116 -1.85,-0.034 -2.7,-0.45c-0.918,-0.443 -1.637,-1.096 -2.162,-1.962c-0.519,-0.869 -0.8,-1.822 -0.85,-2.863c-0.044,-1.043 0.169,-2.071 0.637,-3.087l1.475,-3.075l-10.087,-21.175c-0.225,-0.441 -0.559,-0.841 -1,-1.2c-0.444,-0.366 -0.884,-0.566 -1.325,-0.6l0,-0.288l8.1,0c0.825,0 1.391,0.319 1.7,0.95l6.637,13.875l4.788,-10.037c0.191,-0.441 0.287,-0.9 0.287,-1.375c0,-0.825 -0.271,-1.538 -0.812,-2.138c-0.534,-0.6 -1.197,-0.928 -1.988,-0.987l0,-0.288z"/>
  <path id="svg_6" fill="#222222" d="m161.332,146.602c1.675,0.069 3.181,0.487 4.525,1.262c1.34,0.769 2.415,1.769 3.225,3c0.806,1.235 1.212,2.61 1.212,4.125c0,1.55 -0.431,2.95 -1.287,4.2c-0.85,1.244 -1.988,2.244 -3.413,3c-1.418,0.76 -2.997,1.138 -4.737,1.138l-19.463,0l0,-0.288c0.782,0 1.45,-0.275 2,-0.825c0.557,-0.55 0.838,-1.218 0.838,-2.012l0,-26.913c0,-0.79 -0.281,-1.462 -0.838,-2.012c-0.55,-0.55 -1.218,-0.825 -2,-0.825l0,-0.288l17.813,0c1.54,0 2.937,0.382 4.187,1.138c1.25,0.759 2.244,1.772 2.988,3.037c0.74,1.26 1.112,2.663 1.112,4.213c0,1.925 -0.584,3.631 -1.75,5.112c-1.168,1.485 -2.637,2.463 -4.412,2.938zm-8.763,-16.15l0,16.15l1.75,0c0.882,0 1.688,-0.363 2.413,-1.088c0.731,-0.725 1.312,-1.693 1.737,-2.912c0.425,-1.216 0.638,-2.566 0.638,-4.05c0,-1.516 -0.213,-2.881 -0.638,-4.1c-0.425,-1.216 -1.006,-2.188 -1.737,-2.913c-0.725,-0.725 -1.531,-1.087 -2.413,-1.087l-1.75,0zm2.7,32.587c1.007,0 1.928,-0.362 2.763,-1.087c0.84,-0.725 1.506,-1.703 2,-2.938c0.49,-1.231 0.737,-2.59 0.737,-4.075c0,-1.481 -0.247,-2.831 -0.737,-4.05c-0.494,-1.215 -1.16,-2.187 -2,-2.912c-0.835,-0.725 -1.756,-1.088 -2.763,-1.088l-2.7,0l0,16.15l2.7,0z"/>
  <path id="svg_7" fill="#222222" d="m189.8,159.777c0,0.569 0.188,1.072 0.563,1.512c0.381,0.444 0.844,0.71 1.387,0.8l0,0.288l-8.1,1.187l-0.15,0c-0.218,0 -0.406,-0.081 -0.562,-0.237c-0.16,-0.156 -0.238,-0.344 -0.238,-0.563l0,-0.712c-0.884,0.444 -1.872,0.806 -2.962,1.087c-1.094,0.282 -2.194,0.425 -3.3,0.425c-1.1,0 -2.125,-0.212 -3.075,-0.637c-0.944,-0.425 -1.7,-1.103 -2.275,-2.038c-0.569,-0.931 -0.85,-2.203 -0.85,-3.812l0,-13.225c0,-0.6 -0.194,-1.113 -0.575,-1.538c-0.375,-0.425 -0.831,-0.681 -1.363,-0.775l0,-0.287l8.1,-1.188l0.138,0c0.54,0 0.812,0.272 0.812,0.813l0,15.537c0,0.785 -0.209,1.422 -0.625,1.913c-0.409,0.494 -0.818,0.944 -1.225,1.35c-0.409,0.409 -0.612,0.912 -0.612,1.512c0,0.51 0.303,0.913 0.912,1.213c0.616,0.3 1.382,0.45 2.3,0.45c1.2,0 2.232,-0.163 3.1,-0.488c0.875,-0.331 1.375,-0.531 1.5,-0.6l0,-17.912c0,-0.6 -0.193,-1.113 -0.575,-1.538c-0.375,-0.425 -0.831,-0.681 -1.362,-0.775l0,-0.287l8.1,-1.188l0.137,0c0.532,0 0.8,0.272 0.8,0.813l0,18.9z"/>
  <path id="svg_8" fill="#222222" d="m210.936,159.777c0,0.569 0.188,1.072 0.563,1.512c0.381,0.444 0.84,0.71 1.375,0.8l0,0.288l-8.1,1.187c-0.035,0 -0.06,0 -0.075,0c-0.019,0 -0.038,0 -0.063,0c-0.225,0 -0.419,-0.087 -0.575,-0.262c-0.159,-0.175 -0.237,-0.369 -0.237,-0.588l0,-1.137c-0.885,0.694 -1.838,1.222 -2.863,1.587c-1.025,0.357 -2.094,0.475 -3.2,0.35c-1.575,-0.159 -2.987,-0.765 -4.237,-1.825c-1.25,-1.056 -2.232,-2.415 -2.938,-4.075c-0.709,-1.656 -1.062,-3.465 -1.062,-5.425c0,-1.856 0.29,-3.562 0.875,-5.112c0.581,-1.55 1.362,-2.881 2.337,-4c0.981,-1.125 2.075,-1.988 3.275,-2.588c1.2,-0.6 2.416,-0.9 3.65,-0.9c0.816,0 1.594,0.107 2.338,0.313c0.74,0.2 1.35,0.431 1.825,0.687l0,-6.637c0,-0.566 -0.194,-1.069 -0.575,-1.513c-0.375,-0.44 -0.832,-0.712 -1.363,-0.812l0,-0.275l8.1,-1.188c0.031,0 0.056,0 0.075,0c0.016,0 0.038,0 0.063,0c0.54,0 0.812,0.285 0.812,0.85l0,28.763zm-8.675,1.8c0.475,0 0.994,-0.128 1.563,-0.388l0,-20.275c-0.569,-0.25 -1.088,-0.375 -1.563,-0.375c-1.044,0 -1.994,0.475 -2.85,1.425c-0.85,0.944 -1.537,2.207 -2.062,3.788c-0.519,1.575 -0.775,3.344 -0.775,5.3c0,1.934 0.256,3.697 0.775,5.287c0.525,1.594 1.212,2.863 2.062,3.813c0.856,0.95 1.806,1.425 2.85,1.425z"/>
  <path id="svg_9" fill="#222222" d="m232.063,159.777c0,0.569 0.188,1.072 0.563,1.512c0.381,0.444 0.84,0.71 1.375,0.8l0,0.288l-8.1,1.187c-0.035,0 -0.06,0 -0.075,0c-0.019,0 -0.038,0 -0.063,0c-0.225,0 -0.418,-0.087 -0.575,-0.262c-0.159,-0.175 -0.237,-0.369 -0.237,-0.588l0,-1.137c-0.885,0.694 -1.838,1.222 -2.863,1.587c-1.025,0.357 -2.093,0.475 -3.2,0.35c-1.575,-0.159 -2.987,-0.765 -4.237,-1.825c-1.25,-1.056 -2.231,-2.415 -2.938,-4.075c-0.709,-1.656 -1.062,-3.465 -1.062,-5.425c0,-1.856 0.29,-3.562 0.875,-5.112c0.581,-1.55 1.362,-2.881 2.337,-4c0.982,-1.125 2.075,-1.988 3.275,-2.588c1.2,-0.6 2.416,-0.9 3.65,-0.9c0.816,0 1.594,0.107 2.338,0.313c0.74,0.2 1.35,0.431 1.825,0.687l0,-6.637c0,-0.566 -0.194,-1.069 -0.575,-1.513c-0.375,-0.44 -0.831,-0.712 -1.363,-0.812l0,-0.275l8.1,-1.188c0.032,0 0.057,0 0.075,0c0.016,0 0.038,0 0.063,0c0.54,0 0.812,0.285 0.812,0.85l0,28.763zm-8.675,1.8c0.475,0 0.994,-0.128 1.563,-0.388l0,-20.275c-0.569,-0.25 -1.088,-0.375 -1.563,-0.375c-1.043,0 -1.993,0.475 -2.85,1.425c-0.85,0.944 -1.537,2.207 -2.062,3.788c-0.519,1.575 -0.775,3.344 -0.775,5.3c0,1.934 0.256,3.697 0.775,5.287c0.525,1.594 1.212,2.863 2.062,3.813c0.857,0.95 1.807,1.425 2.85,1.425z"/>
  <path id="svg_10" fill="#222222" d="m249.066,140.064l9,0l0,0.288c-0.85,0.094 -1.707,0.4 -2.563,0.925c-0.85,0.519 -1.625,1.147 -2.325,1.887c-0.694,0.744 -1.225,1.51 -1.6,2.3l-10.05,21.038c-0.444,0.975 -0.637,1.966 -0.587,2.975c0.05,1.016 0.325,1.925 0.825,2.725c0.506,0.806 1.187,1.431 2.037,1.875c0.631,0.281 1.313,0.425 2.038,0.425c0.54,0 0.812,-0.284 0.812,-0.85c0,-0.409 -0.184,-0.797 -0.55,-1.163c-0.359,-0.359 -0.731,-0.775 -1.112,-1.25c-0.375,-0.475 -0.563,-1.075 -0.563,-1.8c0,-1.009 0.363,-1.881 1.088,-2.612c0.725,-0.725 1.575,-1.088 2.55,-1.088c1.015,0 1.887,0.363 2.612,1.088c0.725,0.731 1.088,1.603 1.088,2.612c0,0.882 -0.257,1.713 -0.763,2.488c-0.5,0.775 -1.162,1.412 -1.987,1.912c-0.819,0.507 -1.7,0.816 -2.65,0.925c-0.95,0.116 -1.85,-0.034 -2.7,-0.45c-0.919,-0.443 -1.638,-1.096 -2.163,-1.962c-0.519,-0.869 -0.8,-1.822 -0.85,-2.863c-0.044,-1.043 0.169,-2.071 0.638,-3.087l1.475,-3.075l-10.088,-21.175c-0.225,-0.441 -0.559,-0.841 -1,-1.2c-0.444,-0.366 -0.884,-0.566 -1.325,-0.6l0,-0.288l8.1,0c0.825,0 1.391,0.319 1.7,0.95l6.638,13.875l4.787,-10.037c0.191,-0.441 0.288,-0.9 0.288,-1.375c0,-0.825 -0.272,-1.538 -0.813,-2.138c-0.534,-0.6 -1.197,-0.928 -1.987,-0.987l0,-0.288z"/>
  <path id="svg_11" fill="#222222" d="m50.1463,122.517c-0.0187,-0.291 -0.1312,-0.519 -0.3375,-0.687c-0.2094,-0.175 -0.4844,-0.263 -0.825,-0.263c-0.35,0 -0.6187,0.072 -0.8,0.213c-0.1844,0.143 -0.275,0.346 -0.275,0.612c0,0.144 0.0375,0.269 0.1125,0.375c0.0813,0.1 0.2281,0.172 0.4375,0.213l1.3375,0.312c0.3656,0.075 0.6375,0.225 0.8125,0.45c0.175,0.219 0.2625,0.484 0.2625,0.8c0,0.469 -0.1719,0.822 -0.5125,1.063c-0.3437,0.24 -0.7844,0.362 -1.325,0.362c-0.4187,0 -0.7469,-0.056 -0.9875,-0.162c-0.2437,-0.107 -0.4562,-0.275 -0.6375,-0.5c-0.1844,-0.232 -0.275,-0.557 -0.275,-0.975l0.5875,0c0,0.35 0.1156,0.621 0.35,0.812c0.2313,0.194 0.55,0.288 0.95,0.288c0.3906,0 0.6906,-0.066 0.9,-0.2c0.2156,-0.141 0.325,-0.341 0.325,-0.6c0,-0.225 -0.0625,-0.394 -0.1875,-0.513c-0.125,-0.116 -0.375,-0.216 -0.75,-0.3l-1.0125,-0.237c-0.3437,-0.075 -0.5969,-0.207 -0.7625,-0.4c-0.1687,-0.191 -0.25,-0.425 -0.25,-0.7c0,-0.425 0.1406,-0.769 0.425,-1.038c0.2906,-0.275 0.6906,-0.412 1.2,-0.412c0.575,0 1.0156,0.121 1.325,0.362c0.3063,0.234 0.475,0.609 0.5,1.125l-0.5875,0z"/>
  <path id="svg_12" fill="#222222" d="m52.6574,121.717l-1.5875,0l0,-0.562l3.8125,0l0,0.562l-1.5875,0l0,4.125l-0.6375,0l0,-4.125z"/>
  <path id="svg_13" fill="#222222" d="m58.9737,121.155l0,3.037c0,0.525 -0.1688,0.956 -0.5,1.288c-0.325,0.325 -0.7875,0.487 -1.3875,0.487c-0.5594,0 -1,-0.15 -1.325,-0.45c-0.3188,-0.306 -0.475,-0.719 -0.475,-1.237l0,-3.125l0.625,0l0,2.95c0,0.434 0.1062,0.759 0.325,0.975c0.2156,0.218 0.5031,0.325 0.8625,0.325c0.3906,0 0.6937,-0.107 0.9125,-0.325c0.2156,-0.216 0.325,-0.538 0.325,-0.963l0,-2.962l0.6375,0z"/>
  <path id="svg_14" fill="#222222" d="m60.4481,125.305l1.2375,0c0.425,0 0.7531,-0.163 0.9875,-0.488c0.2406,-0.331 0.3625,-0.781 0.3625,-1.35c0,-0.556 -0.1219,-0.991 -0.3625,-1.3c-0.2438,-0.306 -0.5938,-0.466 -1.05,-0.475l-1.175,0l0,3.613zm-0.6375,-4.15l1.9125,0c0.6062,0 1.0875,0.212 1.4375,0.637c0.35,0.419 0.525,0.963 0.525,1.638c0,0.725 -0.175,1.309 -0.525,1.75c-0.35,0.443 -0.8375,0.662 -1.4625,0.662l-1.8875,0l0,-4.687z"/>
  <path id="svg_15" fill="#222222" d="m66.2512,125.842l-0.6375,0l0,-1.887l-1.7625,-2.8l0.7375,0l1.35,2.25l1.3375,-2.25l0.75,0l-1.775,2.8l0,1.887z"/>
  <path id="svg_16" fill="#222222" d="m73.7006,125.842l0,-2.775c0,-0.031 0,-0.206 0,-0.525c0.0062,-0.316 0.0125,-0.528 0.0125,-0.637l-0.025,0l-1.3125,3.937l-0.625,0l-1.3125,-3.937l-0.025,0c0,0.159 0,0.384 0,0.675c0.0062,0.293 0.0125,0.456 0.0125,0.487l0,2.775l-0.6125,0l0,-4.687l0.9125,0l1.3375,3.962l0.0125,0l1.325,-3.962l0.9125,0l0,4.687l-0.6125,0z"/>
  <path id="svg_17" fill="#222222" d="m77.5396,123.917l-0.6875,-2.062l-0.0125,0l-0.7625,2.062l1.4625,0zm-1.65,0.563l-0.5,1.362l-0.65,0l1.775,-4.687l0.7125,0l1.7,4.687l-0.6875,0l-0.475,-1.362l-1.875,0z"/>
  <path id="svg_18" fill="#222222" d="m80.5075,121.717l-1.5875,0l0,-0.562l3.8125,0l0,0.562l-1.5875,0l0,4.125l-0.6375,0l0,-4.125z"/>
  <path id="svg_19" fill="#222222" d="m86.4239,122.555c-0.0688,-0.316 -0.2125,-0.554 -0.4375,-0.713c-0.225,-0.166 -0.5188,-0.25 -0.875,-0.25c-0.4594,0 -0.8313,0.169 -1.1125,0.5c-0.2844,0.334 -0.425,0.784 -0.425,1.35c0,0.669 0.1312,1.163 0.4,1.488c0.2656,0.318 0.6531,0.475 1.1625,0.475c0.3312,0 0.6156,-0.107 0.85,-0.325c0.2406,-0.225 0.4031,-0.544 0.4875,-0.963l0.6125,0c-0.0844,0.6 -0.3125,1.059 -0.6875,1.375c-0.375,0.319 -0.8313,0.475 -1.3625,0.475c-0.6438,0 -1.1563,-0.219 -1.5375,-0.662c-0.3844,-0.441 -0.575,-1.054 -0.575,-1.838c0,-0.75 0.2,-1.341 0.6,-1.775c0.4,-0.441 0.9281,-0.662 1.5875,-0.662c0.55,0 0.9906,0.143 1.325,0.425c0.3406,0.275 0.5406,0.643 0.6,1.1l-0.6125,0z"/>
  <path id="svg_20" fill="#222222" d="m91.4211,125.842l-0.625,0l0,-2.187l-2.4625,0l0,2.187l-0.625,0l0,-4.687l0.625,0l0,1.937l2.4625,0l0,-1.937l0.625,0l0,4.687z"/>
  <path id="svg_21" fill="#222222" d="m96.188,125.842l0,-2.775c0,-0.031 0,-0.206 0,-0.525c0.0062,-0.316 0.0125,-0.528 0.0125,-0.637l-0.025,0l-1.3125,3.937l-0.625,0l-1.3125,-3.937l-0.025,0c0,0.159 0,0.384 0,0.675c0.0062,0.293 0.0125,0.456 0.0125,0.487l0,2.775l-0.6125,0l0,-4.687l0.9125,0l1.3375,3.962l0.0125,0l1.325,-3.962l0.9125,0l0,4.687l-0.6125,0z"/>
  <path id="svg_22" fill="#222222" d="m100.027,123.917l-0.6875,-2.062l-0.0125,0l-0.7625,2.062l1.4625,0zm-1.65,0.563l-0.5,1.362l-0.65,0l1.775,-4.687l0.7125,0l1.6995,4.687l-0.687,0l-0.475,-1.362l-1.875,0z"/>
  <path id="svg_23" fill="#222222" d="m102.482,125.842l-0.625,0l0,-4.687l0.625,0l0,2.262l2.288,-2.262l0.875,0l-1.963,1.887l2.013,2.8l-0.825,0l-1.638,-2.35l-0.75,0.7l0,1.65z"/>
  <path id="svg_24" fill="#222222" d="m106.707,125.842l-0.637,0l0,-4.687l0.637,0l0,4.687z"/>
  <path id="svg_25" fill="#222222" d="m110.69,121.155l0.612,0l0,4.687l-0.712,0l-2.388,-3.787l-0.012,0l0,3.787l-0.613,0l0,-4.687l0.75,0l2.35,3.787l0.013,0l0,-3.787z"/>
  <path id="svg_26" fill="#222222" d="m114.163,123.33l2.063,0l0,2.512l-0.413,0l-0.15,-0.612c-0.2,0.259 -0.437,0.446 -0.712,0.562c-0.269,0.116 -0.547,0.175 -0.838,0.175c-0.469,0 -0.859,-0.1 -1.175,-0.3c-0.319,-0.206 -0.562,-0.491 -0.737,-0.85c-0.175,-0.366 -0.263,-0.819 -0.263,-1.362c0,-0.675 0.2,-1.244 0.6,-1.713c0.4,-0.475 0.941,-0.712 1.625,-0.712c0.506,0 0.95,0.143 1.325,0.425c0.375,0.284 0.594,0.656 0.663,1.112l-0.613,0c-0.075,-0.306 -0.234,-0.544 -0.475,-0.712c-0.244,-0.175 -0.556,-0.263 -0.937,-0.263c-0.46,0 -0.832,0.175 -1.113,0.525c-0.284,0.344 -0.425,0.8 -0.425,1.375c0,0.669 0.138,1.159 0.413,1.475c0.281,0.309 0.665,0.463 1.15,0.463c0.315,0 0.581,-0.063 0.8,-0.188c0.215,-0.125 0.381,-0.294 0.5,-0.512c0.115,-0.216 0.175,-0.5 0.175,-0.85l-1.463,0l0,-0.55z"/>
  <path id="svg_27" fill="#222222" d="m120.804,123.917l-0.688,-2.062l-0.012,0l-0.763,2.062l1.463,0zm-1.65,0.563l-0.5,1.362l-0.65,0l1.775,-4.687l0.712,0l1.7,4.687l-0.687,0l-0.475,-1.362l-1.875,0z"/>
  <path id="svg_28" fill="#222222" d="m123.272,123.317l1.262,0c0.316,0 0.553,-0.066 0.713,-0.2c0.156,-0.141 0.237,-0.353 0.237,-0.637c0,-0.257 -0.075,-0.454 -0.225,-0.588c-0.15,-0.131 -0.384,-0.2 -0.7,-0.2l-1.287,0l0,1.625zm0,2.525l-0.638,0l0,-4.687l2.113,0c0.425,0 0.762,0.121 1.012,0.362c0.257,0.244 0.388,0.559 0.388,0.95c0,0.409 -0.125,0.744 -0.375,1c-0.244,0.259 -0.585,0.388 -1.025,0.388l-1.475,0l0,1.987z"/>
  <path id="svg_29" fill="#222222" d="m127.318,123.317l1.263,0c0.315,0 0.553,-0.066 0.712,-0.2c0.157,-0.141 0.238,-0.353 0.238,-0.637c0,-0.257 -0.075,-0.454 -0.225,-0.588c-0.15,-0.131 -0.385,-0.2 -0.7,-0.2l-1.288,0l0,1.625zm0,2.525l-0.637,0l0,-4.687l2.112,0c0.425,0 0.763,0.121 1.013,0.362c0.256,0.244 0.387,0.559 0.387,0.95c0,0.409 -0.125,0.744 -0.375,1c-0.243,0.259 -0.584,0.388 -1.025,0.388l-1.475,0l0,1.987z"/>
  <path id="svg_30" fill="#222222" d="m146.027,168.621c-0.019,-0.291 -0.132,-0.519 -0.338,-0.687c-0.209,-0.175 -0.484,-0.263 -0.825,-0.263c-0.35,0 -0.619,0.072 -0.8,0.213c-0.184,0.143 -0.275,0.346 -0.275,0.612c0,0.144 0.038,0.269 0.113,0.375c0.081,0.1 0.228,0.172 0.437,0.213l1.338,0.312c0.365,0.075 0.637,0.225 0.812,0.45c0.175,0.219 0.263,0.484 0.263,0.8c0,0.469 -0.172,0.822 -0.513,1.063c-0.344,0.24 -0.784,0.362 -1.325,0.362c-0.419,0 -0.747,-0.056 -0.987,-0.162c-0.244,-0.107 -0.457,-0.275 -0.638,-0.5c-0.184,-0.232 -0.275,-0.557 -0.275,-0.975l0.588,0c0,0.35 0.115,0.621 0.35,0.812c0.231,0.194 0.55,0.288 0.95,0.288c0.39,0 0.69,-0.066 0.9,-0.2c0.215,-0.141 0.325,-0.341 0.325,-0.6c0,-0.225 -0.063,-0.394 -0.188,-0.513c-0.125,-0.116 -0.375,-0.216 -0.75,-0.3l-1.012,-0.237c-0.344,-0.075 -0.597,-0.207 -0.763,-0.4c-0.169,-0.191 -0.25,-0.425 -0.25,-0.7c0,-0.425 0.141,-0.769 0.425,-1.038c0.291,-0.275 0.691,-0.412 1.2,-0.412c0.575,0 1.016,0.121 1.325,0.362c0.306,0.234 0.475,0.609 0.5,1.125l-0.587,0z"/>
  <path id="svg_31" fill="#222222" d="m148.038,171.946l-0.638,0l0,-4.687l0.638,0l0,4.687z"/>
  <path id="svg_32" fill="#222222" d="m152.02,167.259l0.613,0l0,4.687l-0.713,0l-2.387,-3.787l-0.013,0l0,3.787l-0.612,0l0,-4.687l0.75,0l2.35,3.787l0.012,0l0,-3.787z"/>
  <path id="svg_33" fill="#222222" d="m156.769,168.659c-0.069,-0.316 -0.213,-0.554 -0.438,-0.713c-0.225,-0.166 -0.519,-0.25 -0.875,-0.25c-0.459,0 -0.831,0.169 -1.112,0.5c-0.285,0.334 -0.425,0.784 -0.425,1.35c0,0.669 0.131,1.163 0.4,1.488c0.265,0.318 0.653,0.475 1.162,0.475c0.331,0 0.616,-0.107 0.85,-0.325c0.241,-0.225 0.403,-0.544 0.488,-0.963l0.612,0c-0.084,0.6 -0.312,1.059 -0.687,1.375c-0.375,0.319 -0.832,0.475 -1.363,0.475c-0.644,0 -1.156,-0.219 -1.537,-0.662c-0.385,-0.441 -0.575,-1.054 -0.575,-1.838c0,-0.75 0.2,-1.341 0.6,-1.775c0.4,-0.441 0.928,-0.662 1.587,-0.662c0.55,0 0.991,0.143 1.325,0.425c0.341,0.275 0.541,0.643 0.6,1.1l-0.612,0z"/>
  <path id="svg_34" fill="#222222" d="m161.516,171.946l-3.463,0l0,-4.687l3.425,0l0,0.562l-2.787,0l0,1.425l2.575,0l0,0.563l-2.575,0l0,1.575l2.825,0l0,0.562z"/>
  <path id="svg_35" fill="#222222" d="m163.303,168.996c0,-0.541 0.137,-0.95 0.412,-1.225c0.282,-0.281 0.675,-0.425 1.175,-0.425c0.425,0 0.769,0.131 1.038,0.388c0.266,0.259 0.4,0.587 0.4,0.987c0,0.319 -0.081,0.584 -0.238,0.8c-0.15,0.219 -0.375,0.406 -0.675,0.563l-0.787,0.437c-0.469,0.259 -0.734,0.556 -0.8,0.888l2.5,0l0,0.537l-3.138,0c0.016,-0.431 0.107,-0.791 0.275,-1.075c0.166,-0.291 0.432,-0.541 0.8,-0.75l0.825,-0.475c0.216,-0.125 0.375,-0.253 0.475,-0.387c0.1,-0.141 0.15,-0.329 0.15,-0.563c0,-0.231 -0.084,-0.428 -0.25,-0.587c-0.159,-0.157 -0.381,-0.238 -0.662,-0.238c-0.309,0 -0.544,0.1 -0.7,0.3c-0.15,0.2 -0.225,0.475 -0.225,0.825l-0.575,0z"/>
  <path id="svg_36" fill="#222222" d="m169.247,169.709c0,-0.616 -0.085,-1.075 -0.25,-1.375c-0.16,-0.307 -0.397,-0.463 -0.713,-0.463c-0.309,0 -0.547,0.156 -0.712,0.463c-0.169,0.3 -0.25,0.759 -0.25,1.375c0,0.6 0.081,1.059 0.25,1.375c0.165,0.318 0.403,0.475 0.712,0.475c0.316,0 0.553,-0.154 0.713,-0.463c0.165,-0.306 0.25,-0.769 0.25,-1.387zm0.612,0c0,0.759 -0.137,1.343 -0.412,1.75c-0.269,0.409 -0.656,0.612 -1.163,0.612c-0.525,0 -0.922,-0.212 -1.187,-0.637c-0.26,-0.425 -0.388,-1 -0.388,-1.725c0,-0.741 0.132,-1.319 0.4,-1.738c0.275,-0.416 0.666,-0.625 1.175,-0.625c0.507,0 0.894,0.209 1.163,0.625c0.275,0.419 0.412,0.997 0.412,1.738z"/>
  <path id="svg_37" fill="#222222" d="m170.216,168.996c0,-0.541 0.137,-0.95 0.412,-1.225c0.282,-0.281 0.675,-0.425 1.175,-0.425c0.425,0 0.769,0.131 1.038,0.388c0.265,0.259 0.4,0.587 0.4,0.987c0,0.319 -0.081,0.584 -0.238,0.8c-0.15,0.219 -0.375,0.406 -0.675,0.563l-0.787,0.437c-0.469,0.259 -0.735,0.556 -0.8,0.888l2.5,0l0,0.537l-3.138,0c0.016,-0.431 0.107,-0.791 0.275,-1.075c0.166,-0.291 0.432,-0.541 0.8,-0.75l0.825,-0.475c0.216,-0.125 0.375,-0.253 0.475,-0.387c0.1,-0.141 0.15,-0.329 0.15,-0.563c0,-0.231 -0.084,-0.428 -0.25,-0.587c-0.159,-0.157 -0.381,-0.238 -0.662,-0.238c-0.31,0 -0.544,0.1 -0.7,0.3c-0.15,0.2 -0.225,0.475 -0.225,0.825l-0.575,0z"/>
  <path id="svg_38" fill="#222222" d="m174.347,169.271c0.25,-0.191 0.544,-0.287 0.888,-0.287c0.415,0 0.768,0.137 1.062,0.412c0.3,0.275 0.45,0.631 0.45,1.063c0,0.468 -0.147,0.856 -0.437,1.162c-0.285,0.3 -0.685,0.45 -1.2,0.45c-0.45,0 -0.807,-0.109 -1.063,-0.325c-0.259,-0.216 -0.409,-0.528 -0.45,-0.937l0.588,0c0.031,0.25 0.128,0.443 0.287,0.575c0.166,0.125 0.394,0.187 0.688,0.187c0.281,0 0.515,-0.094 0.7,-0.287c0.181,-0.2 0.275,-0.45 0.275,-0.75c0,-0.316 -0.097,-0.566 -0.288,-0.75c-0.194,-0.191 -0.437,-0.288 -0.737,-0.288c-0.344,0 -0.625,0.147 -0.85,0.438l-0.5,-0.025l0.35,-2.45l2.375,0l0,0.55l-1.95,0l-0.188,1.262z"/>
 </g>
</svg>