<svg width="79" height="40" viewBox="0 0 79 40" fill="none" xmlns="http://www.w3.org/2000/svg">
<g clip-path="url(#clip0_285_6076)">
<rect width="79" height="40" rx="20" fill="#65558F"/>
<path d="M30.4633 22.4365C30.4633 22.2314 30.4314 22.0492 30.3676 21.8896C30.3083 21.7301 30.2012 21.5843 30.0463 21.4521C29.8913 21.32 29.6726 21.1924 29.39 21.0693C29.112 20.9417 28.7566 20.8118 28.3236 20.6797C27.8497 20.5339 27.4122 20.3721 27.0111 20.1943C26.6146 20.012 26.2683 19.8024 25.9721 19.5654C25.6758 19.3239 25.4457 19.0482 25.2816 18.7383C25.1176 18.4238 25.0355 18.0615 25.0355 17.6514C25.0355 17.2458 25.1199 16.8766 25.2885 16.5439C25.4617 16.2113 25.7055 15.9242 26.0199 15.6826C26.3389 15.4365 26.7149 15.2474 27.1479 15.1152C27.5808 14.9785 28.0593 14.9102 28.5834 14.9102C29.3217 14.9102 29.9574 15.0469 30.4906 15.3203C31.0284 15.5938 31.4408 15.9606 31.7279 16.4209C32.0196 16.8812 32.1654 17.3893 32.1654 17.9453H30.4633C30.4633 17.6172 30.3926 17.3278 30.2514 17.0771C30.1146 16.8219 29.905 16.6214 29.6225 16.4756C29.3445 16.3298 28.9913 16.2568 28.5629 16.2568C28.1573 16.2568 27.8201 16.3184 27.5512 16.4414C27.2823 16.5645 27.0818 16.7308 26.9496 16.9404C26.8174 17.1501 26.7514 17.387 26.7514 17.6514C26.7514 17.8382 26.7947 18.0091 26.8813 18.1641C26.9678 18.3145 27.1 18.4557 27.2777 18.5879C27.4555 18.7155 27.6788 18.8363 27.9477 18.9502C28.2165 19.0641 28.5333 19.1735 28.8979 19.2783C29.4493 19.4424 29.9301 19.6247 30.3402 19.8252C30.7504 20.0212 31.0922 20.2445 31.3656 20.4951C31.6391 20.7458 31.8441 21.0306 31.9809 21.3496C32.1176 21.6641 32.1859 22.0218 32.1859 22.4229C32.1859 22.8421 32.1016 23.2204 31.933 23.5576C31.7644 23.8903 31.5229 24.1751 31.2084 24.4121C30.8985 24.6445 30.5248 24.8245 30.0873 24.9521C29.6544 25.0752 29.1713 25.1367 28.6381 25.1367C28.1596 25.1367 27.6879 25.0729 27.223 24.9453C26.7628 24.8177 26.3435 24.624 25.9652 24.3643C25.587 24.0999 25.2862 23.7718 25.0629 23.3799C24.8396 22.9834 24.7279 22.5208 24.7279 21.9922H26.4438C26.4438 22.3158 26.4984 22.5915 26.6078 22.8193C26.7217 23.0472 26.879 23.234 27.0795 23.3799C27.28 23.5212 27.5124 23.626 27.7768 23.6943C28.0456 23.7627 28.3327 23.7969 28.6381 23.7969C29.0391 23.7969 29.3741 23.7399 29.643 23.626C29.9164 23.512 30.1215 23.3525 30.2582 23.1475C30.3949 22.9424 30.4633 22.7054 30.4633 22.4365ZM37.8094 23.5166V19.9893C37.8094 19.7249 37.7615 19.4971 37.6658 19.3057C37.5701 19.1143 37.4243 18.9661 37.2283 18.8613C37.0369 18.7565 36.7954 18.7041 36.5037 18.7041C36.2348 18.7041 36.0024 18.7497 35.8064 18.8408C35.6105 18.932 35.4578 19.055 35.3484 19.21C35.2391 19.3649 35.1844 19.5404 35.1844 19.7363H33.5438C33.5438 19.4447 33.6144 19.1621 33.7557 18.8887C33.8969 18.6152 34.102 18.3714 34.3709 18.1572C34.6398 17.943 34.9611 17.7744 35.3348 17.6514C35.7085 17.5283 36.1277 17.4668 36.5926 17.4668C37.1486 17.4668 37.6408 17.5602 38.0691 17.7471C38.5021 17.9339 38.8416 18.2165 39.0877 18.5947C39.3383 18.9684 39.4637 19.4378 39.4637 20.0029V23.291C39.4637 23.6283 39.4865 23.9313 39.532 24.2002C39.5822 24.4645 39.6528 24.6947 39.7439 24.8906V25H38.0555C37.978 24.8223 37.9165 24.5967 37.8709 24.3232C37.8299 24.0452 37.8094 23.7764 37.8094 23.5166ZM38.0486 20.502L38.0623 21.5205H36.8797C36.5743 21.5205 36.3055 21.5501 36.073 21.6094C35.8406 21.6641 35.6469 21.7461 35.492 21.8555C35.337 21.9648 35.2208 22.097 35.1434 22.252C35.0659 22.4069 35.0271 22.5824 35.0271 22.7783C35.0271 22.9743 35.0727 23.1543 35.1639 23.3184C35.255 23.4779 35.3872 23.6032 35.5604 23.6943C35.7381 23.7855 35.9523 23.8311 36.2029 23.8311C36.5402 23.8311 36.8341 23.7627 37.0848 23.626C37.34 23.4847 37.5405 23.3138 37.6863 23.1133C37.8322 22.9082 37.9096 22.7145 37.9188 22.5322L38.452 23.2637C38.3973 23.4505 38.3038 23.651 38.1717 23.8652C38.0395 24.0794 37.8663 24.2845 37.6521 24.4805C37.4425 24.6719 37.1896 24.8291 36.8934 24.9521C36.6017 25.0752 36.2645 25.1367 35.8816 25.1367C35.3986 25.1367 34.9679 25.041 34.5896 24.8496C34.2114 24.6536 33.9152 24.3916 33.701 24.0635C33.4868 23.7308 33.3797 23.3548 33.3797 22.9355C33.3797 22.5436 33.4526 22.1973 33.5984 21.8965C33.7488 21.5911 33.9676 21.3359 34.2547 21.1309C34.5464 20.9258 34.9018 20.7708 35.3211 20.666C35.7404 20.5566 36.2189 20.502 36.7566 20.502H38.0486ZM43.5832 23.6943L45.3947 17.6035H47.1037L44.5334 25H43.467L43.5832 23.6943ZM42.1955 17.6035L44.0412 23.7217L44.1301 25H43.0637L40.4797 17.6035H42.1955ZM51.3873 25.1367C50.8404 25.1367 50.346 25.0479 49.9039 24.8701C49.4664 24.6878 49.0927 24.4349 48.7828 24.1113C48.4775 23.7878 48.2428 23.4072 48.0787 22.9697C47.9146 22.5322 47.8326 22.0605 47.8326 21.5547V21.2812C47.8326 20.7025 47.9169 20.1784 48.0855 19.709C48.2542 19.2396 48.4889 18.8385 48.7896 18.5059C49.0904 18.1686 49.4459 17.9111 49.8561 17.7334C50.2662 17.5557 50.7105 17.4668 51.1891 17.4668C51.7177 17.4668 52.1803 17.5557 52.5768 17.7334C52.9732 17.9111 53.3014 18.1618 53.5611 18.4854C53.8255 18.8044 54.0214 19.1849 54.149 19.627C54.2812 20.069 54.3473 20.5566 54.3473 21.0898V21.7939H48.6324V20.6113H52.7203V20.4814C52.7112 20.1852 52.652 19.9072 52.5426 19.6475C52.4378 19.3877 52.276 19.1781 52.0572 19.0186C51.8385 18.859 51.5468 18.7793 51.1822 18.7793C50.9088 18.7793 50.665 18.8385 50.4508 18.957C50.2411 19.071 50.0657 19.2373 49.9244 19.4561C49.7831 19.6748 49.6738 19.9391 49.5963 20.249C49.5234 20.5544 49.4869 20.8984 49.4869 21.2812V21.5547C49.4869 21.8783 49.5302 22.179 49.6168 22.457C49.7079 22.7305 49.8401 22.9697 50.0133 23.1748C50.1865 23.3799 50.3961 23.5417 50.6422 23.6602C50.8883 23.7741 51.1686 23.8311 51.483 23.8311C51.8795 23.8311 52.2327 23.7513 52.5426 23.5918C52.8525 23.4323 53.1214 23.2067 53.3492 22.915L54.2174 23.7559C54.0579 23.9883 53.8505 24.2116 53.5953 24.4258C53.3401 24.6354 53.0279 24.8063 52.6588 24.9385C52.2942 25.0706 51.8704 25.1367 51.3873 25.1367Z" fill="white"/>
</g>
<defs>
<clipPath id="clip0_285_6076">
<rect width="79" height="40" rx="20" fill="white"/>
</clipPath>
</defs>
</svg>
