<svg width="92" height="40" viewBox="0 0 92 40" fill="none" xmlns="http://www.w3.org/2000/svg">
<g clip-path="url(#clip0_285_6077)">
<path d="M31.2031 21.7598H32.9121C32.8574 22.4115 32.6751 22.9925 32.3652 23.5029C32.0553 24.0088 31.6201 24.4076 31.0596 24.6992C30.499 24.9909 29.8177 25.1367 29.0156 25.1367C28.4004 25.1367 27.8467 25.0273 27.3545 24.8086C26.8623 24.5853 26.4408 24.2708 26.0898 23.8652C25.7389 23.4551 25.4701 22.9606 25.2832 22.3818C25.1009 21.8031 25.0098 21.1559 25.0098 20.4404V19.6133C25.0098 18.8978 25.1032 18.2507 25.29 17.6719C25.4814 17.0931 25.7549 16.5986 26.1104 16.1885C26.4658 15.7738 26.8919 15.457 27.3887 15.2383C27.89 15.0195 28.4528 14.9102 29.0771 14.9102C29.8701 14.9102 30.54 15.056 31.0869 15.3477C31.6338 15.6393 32.0576 16.0426 32.3584 16.5576C32.6637 17.0726 32.8506 17.6628 32.9189 18.3281H31.21C31.1644 17.8997 31.0641 17.5329 30.9092 17.2275C30.7588 16.9222 30.5355 16.6898 30.2393 16.5303C29.943 16.3662 29.5557 16.2842 29.0771 16.2842C28.6852 16.2842 28.3434 16.3571 28.0518 16.5029C27.7601 16.6488 27.5163 16.863 27.3203 17.1455C27.1243 17.4281 26.9762 17.7767 26.876 18.1914C26.7803 18.6016 26.7324 19.071 26.7324 19.5996V20.4404C26.7324 20.9417 26.7757 21.3975 26.8623 21.8076C26.9535 22.2132 27.0902 22.5618 27.2725 22.8535C27.4593 23.1452 27.6963 23.3708 27.9834 23.5303C28.2705 23.6898 28.6146 23.7695 29.0156 23.7695C29.5033 23.7695 29.8975 23.6921 30.1982 23.5371C30.5036 23.3822 30.7337 23.1566 30.8887 22.8604C31.0482 22.5596 31.153 22.1927 31.2031 21.7598ZM38.5766 23.5166V19.9893C38.5766 19.7249 38.5287 19.4971 38.433 19.3057C38.3373 19.1143 38.1915 18.9661 37.9955 18.8613C37.8041 18.7565 37.5626 18.7041 37.2709 18.7041C37.002 18.7041 36.7696 18.7497 36.5736 18.8408C36.3777 18.932 36.225 19.055 36.1156 19.21C36.0063 19.3649 35.9516 19.5404 35.9516 19.7363H34.3109C34.3109 19.4447 34.3816 19.1621 34.5229 18.8887C34.6641 18.6152 34.8692 18.3714 35.1381 18.1572C35.407 17.943 35.7283 17.7744 36.102 17.6514C36.4757 17.5283 36.8949 17.4668 37.3598 17.4668C37.9158 17.4668 38.4079 17.5602 38.8363 17.7471C39.2693 17.9339 39.6088 18.2165 39.8549 18.5947C40.1055 18.9684 40.2309 19.4378 40.2309 20.0029V23.291C40.2309 23.6283 40.2536 23.9313 40.2992 24.2002C40.3493 24.4645 40.42 24.6947 40.5111 24.8906V25H38.8227C38.7452 24.8223 38.6837 24.5967 38.6381 24.3232C38.5971 24.0452 38.5766 23.7764 38.5766 23.5166ZM38.8158 20.502L38.8295 21.5205H37.6469C37.3415 21.5205 37.0727 21.5501 36.8402 21.6094C36.6078 21.6641 36.4141 21.7461 36.2592 21.8555C36.1042 21.9648 35.988 22.097 35.9105 22.252C35.8331 22.4069 35.7943 22.5824 35.7943 22.7783C35.7943 22.9743 35.8399 23.1543 35.9311 23.3184C36.0222 23.4779 36.1544 23.6032 36.3275 23.6943C36.5053 23.7855 36.7195 23.8311 36.9701 23.8311C37.3074 23.8311 37.6013 23.7627 37.852 23.626C38.1072 23.4847 38.3077 23.3138 38.4535 23.1133C38.5993 22.9082 38.6768 22.7145 38.6859 22.5322L39.2191 23.2637C39.1645 23.4505 39.071 23.651 38.9389 23.8652C38.8067 24.0794 38.6335 24.2845 38.4193 24.4805C38.2097 24.6719 37.9568 24.8291 37.6605 24.9521C37.3689 25.0752 37.0316 25.1367 36.6488 25.1367C36.1658 25.1367 35.7351 25.041 35.3568 24.8496C34.9786 24.6536 34.6824 24.3916 34.4682 24.0635C34.254 23.7308 34.1469 23.3548 34.1469 22.9355C34.1469 22.5436 34.2198 22.1973 34.3656 21.8965C34.516 21.5911 34.7348 21.3359 35.0219 21.1309C35.3135 20.9258 35.669 20.7708 36.0883 20.666C36.5076 20.5566 36.9861 20.502 37.5238 20.502H38.8158ZM43.6873 19.1826V25H42.0398V17.6035H43.5916L43.6873 19.1826ZM43.3934 21.0283L42.8602 21.0215C42.8647 20.4974 42.9376 20.0166 43.0789 19.5791C43.2247 19.1416 43.4253 18.7656 43.6805 18.4512C43.9402 18.1367 44.2501 17.8952 44.6102 17.7266C44.9702 17.5534 45.3712 17.4668 45.8133 17.4668C46.1688 17.4668 46.49 17.5169 46.7771 17.6172C47.0688 17.7129 47.3172 17.8701 47.5223 18.0889C47.7319 18.3076 47.8914 18.5924 48.0008 18.9434C48.1102 19.2897 48.1648 19.7158 48.1648 20.2217V25H46.5105V20.2148C46.5105 19.8594 46.4581 19.5791 46.3533 19.374C46.2531 19.1644 46.1049 19.0163 45.909 18.9297C45.7176 18.8385 45.4783 18.793 45.1912 18.793C44.9087 18.793 44.6557 18.8522 44.4324 18.9707C44.2091 19.0892 44.02 19.251 43.865 19.4561C43.7146 19.6611 43.5984 19.8981 43.5164 20.167C43.4344 20.4359 43.3934 20.723 43.3934 21.0283ZM52.968 23.8242C53.2368 23.8242 53.4784 23.7718 53.6926 23.667C53.9113 23.5576 54.0868 23.4072 54.2189 23.2158C54.3557 23.0244 54.4309 22.8034 54.4445 22.5527H55.9963C55.9872 23.0312 55.8459 23.4665 55.5725 23.8584C55.299 24.2503 54.9367 24.5625 54.4855 24.7949C54.0344 25.0228 53.5354 25.1367 52.9885 25.1367C52.4234 25.1367 51.9312 25.041 51.5119 24.8496C51.0926 24.6536 50.744 24.3848 50.466 24.043C50.188 23.7012 49.9784 23.307 49.8371 22.8604C49.7004 22.4137 49.632 21.9352 49.632 21.4248V21.1855C49.632 20.6751 49.7004 20.1966 49.8371 19.75C49.9784 19.2988 50.188 18.9023 50.466 18.5605C50.744 18.2188 51.0926 17.9521 51.5119 17.7607C51.9312 17.5648 52.4211 17.4668 52.9816 17.4668C53.5741 17.4668 54.0936 17.5853 54.5402 17.8223C54.9868 18.0547 55.3378 18.3805 55.593 18.7998C55.8527 19.2145 55.9872 19.6976 55.9963 20.249H54.4445C54.4309 19.9756 54.3625 19.7295 54.2395 19.5107C54.121 19.2874 53.9523 19.1097 53.7336 18.9775C53.5194 18.8454 53.2619 18.7793 52.9611 18.7793C52.6284 18.7793 52.3527 18.8477 52.134 18.9844C51.9152 19.1165 51.7443 19.2988 51.6213 19.5312C51.4982 19.7591 51.4094 20.0166 51.3547 20.3037C51.3046 20.5863 51.2795 20.8802 51.2795 21.1855V21.4248C51.2795 21.7301 51.3046 22.0264 51.3547 22.3135C51.4048 22.6006 51.4914 22.8581 51.6145 23.0859C51.7421 23.3092 51.9152 23.4893 52.134 23.626C52.3527 23.7581 52.6307 23.8242 52.968 23.8242ZM60.6217 25.1367C60.0748 25.1367 59.5803 25.0479 59.1383 24.8701C58.7008 24.6878 58.3271 24.4349 58.0172 24.1113C57.7119 23.7878 57.4771 23.4072 57.3131 22.9697C57.149 22.5322 57.067 22.0605 57.067 21.5547V21.2812C57.067 20.7025 57.1513 20.1784 57.3199 19.709C57.4885 19.2396 57.7232 18.8385 58.024 18.5059C58.3248 18.1686 58.6803 17.9111 59.0904 17.7334C59.5006 17.5557 59.9449 17.4668 60.4234 17.4668C60.9521 17.4668 61.4146 17.5557 61.8111 17.7334C62.2076 17.9111 62.5357 18.1618 62.7955 18.4854C63.0598 18.8044 63.2558 19.1849 63.3834 19.627C63.5156 20.069 63.5816 20.5566 63.5816 21.0898V21.7939H57.8668V20.6113H61.9547V20.4814C61.9456 20.1852 61.8863 19.9072 61.777 19.6475C61.6721 19.3877 61.5104 19.1781 61.2916 19.0186C61.0729 18.859 60.7812 18.7793 60.4166 18.7793C60.1432 18.7793 59.8994 18.8385 59.6852 18.957C59.4755 19.071 59.3001 19.2373 59.1588 19.4561C59.0175 19.6748 58.9081 19.9391 58.8307 20.249C58.7577 20.5544 58.7213 20.8984 58.7213 21.2812V21.5547C58.7213 21.8783 58.7646 22.179 58.8512 22.457C58.9423 22.7305 59.0745 22.9697 59.2477 23.1748C59.4208 23.3799 59.6305 23.5417 59.8766 23.6602C60.1227 23.7741 60.4029 23.8311 60.7174 23.8311C61.1139 23.8311 61.4671 23.7513 61.777 23.5918C62.0869 23.4323 62.3557 23.2067 62.5836 22.915L63.4518 23.7559C63.2923 23.9883 63.0849 24.2116 62.8297 24.4258C62.5745 24.6354 62.2623 24.8063 61.8932 24.9385C61.5286 25.0706 61.1048 25.1367 60.6217 25.1367ZM66.7305 14.5V25H65.0762V14.5H66.7305Z" fill="#65558F"/>
</g>
<rect x="0.5" y="0.5" width="91" height="39" rx="19.5" stroke="#79747E"/>
<defs>
<clipPath id="clip0_285_6077">
<rect width="92" height="40" rx="20" fill="white"/>
</clipPath>
</defs>
</svg>
